<svg id="Layer_1" data-name="Layer 1" xmlns="http://www.w3.org/2000/svg" viewBox="0 0 438.4 138.4"><defs><style>.cls-1{fill:#f0f0f0;}.cls-2{fill:#ccc;}.cls-3{fill:#333;}</style></defs><path class="cls-1" d="M62.2,275.4a34.8,34.8,0,0,1-15.1-14.8c-3.5-6.4-5.2-14.2-5.2-23.3V226.4c0-9.6,1.7-17.7,5-24.5a34.3,34.3,0,0,1,14.5-15.4c6.3-3.5,14-5.3,23-5.3s15.6,2.1,21.7,6.3,10.5,10.4,13.7,18.4,4.7,17.7,4.7,29v6.4h-66V224.1h42.7l-.3-2.3c-.6-5.6-2.4-9.9-5.2-12.9a14.8,14.8,0,0,0-11.3-4.6c-6.1,0-10.9,1.9-14.3,5.5s-5,8.9-5,15.6v12.2c0,6.6,1.8,11.7,5.5,15.3s8.8,5.4,15.5,5.4a29.5,29.5,0,0,0,10.1-1.8,34.1,34.1,0,0,0,9.1-5.2L122,266.1a55.8,55.8,0,0,1-17,10.6,50.2,50.2,0,0,1-18.9,3.8C76.8,280.5,68.8,278.8,62.2,275.4Z" transform="translate(-41.9 -181.2)"/><path class="cls-1" d="M146.8,182.6h27.3v96.5H146.8Zm49.7,24.1a19.6,19.6,0,0,0-6.2-1c-5.2,0-9.1,1.7-12,5s-4.2,7.9-4.2,13.8l-2-25.1A35.7,35.7,0,0,1,182.5,186a22.8,22.8,0,0,1,14-4.8,29,29,0,0,1,10.9,1.9,24.7,24.7,0,0,1,8.5,5.6l-14.8,20.8A11.4,11.4,0,0,0,196.5,206.7Z" transform="translate(-41.9 -181.2)"/><path class="cls-1" d="M228,182.6h27.3v96.5H228Zm49.8,24.1a19.8,19.8,0,0,0-6.3-1c-5.1,0-9.1,1.7-11.9,5s-4.3,7.9-4.3,13.8l-1.9-25.1A34.8,34.8,0,0,1,263.8,186a22.6,22.6,0,0,1,14-4.8,29.4,29.4,0,0,1,10.9,1.9,25.7,25.7,0,0,1,8.5,5.6l-14.9,20.8A11.1,11.1,0,0,0,277.8,206.7Z" transform="translate(-41.9 -181.2)"/><path class="cls-1" d="M323.7,275.6a33.5,33.5,0,0,1-14.2-14.4c-3.3-6.3-4.9-13.9-4.9-22.7V222.8c0-8.8,1.6-16.3,4.9-22.5a33,33,0,0,1,14.2-14.2c6.3-3.3,13.8-4.9,22.6-4.9s16.3,1.6,22.5,4.9A32.5,32.5,0,0,1,383,200.3c3.3,6.2,4.9,13.7,4.9,22.5v15.9c0,8.8-1.6,16.4-4.9,22.6a33.2,33.2,0,0,1-14.2,14.3c-6.2,3.2-13.7,4.9-22.5,4.9S330,278.8,323.7,275.6Zm34.5-24.2c2.8-3,4.2-7.2,4.2-12.7V222.8q0-8.1-4.2-12.6t-12-4.5c-5.1,0-9.1,1.5-11.9,4.5s-4.2,7.2-4.2,12.6v15.9c0,5.5,1.4,9.7,4.2,12.7s6.7,4.5,11.9,4.5S355.3,254.4,358.2,251.4Z" transform="translate(-41.9 -181.2)"/><path class="cls-1" d="M411.2,182.6h27.3v96.5H411.2Zm49.7,24.1a19.6,19.6,0,0,0-6.2-1c-5.2,0-9.2,1.7-12,5s-4.2,7.9-4.2,13.8l-2-25.1A34.8,34.8,0,0,1,446.9,186a22.6,22.6,0,0,1,14-4.8,29,29,0,0,1,10.9,1.9,24.7,24.7,0,0,1,8.5,5.6l-14.9,20.8A10.4,10.4,0,0,0,460.9,206.7Z" transform="translate(-41.9 -181.2)"/><ellipse class="cls-2" cx="146.3" cy="135.6" rx="19.8" ry="2.4"/><ellipse class="cls-2" cx="288.8" cy="135.6" rx="19.8" ry="2.4"/><ellipse class="cls-2" cx="212.7" cy="136.3" rx="38.3" ry="2.1"/><path class="cls-3" d="M189.8,222.8h17.3v58.9h8.2v16.1h-8.2v18.8h-17V297.8h-40V281.7Zm.3,58.9V251.1l-20.9,30.6Z" transform="translate(-41.9 -181.2)"/><path class="cls-3" d="M254.3,222.8c6.7,0,12.4,1.6,17.2,4.9s8.6,8.3,11.2,15,4,16.2,4,28.2-1.3,21.6-4,28.4-6.3,11.7-10.8,14.9-10.2,4.7-17.1,4.7-12.7-1.6-17.4-4.8-8.3-8-11-14.5-4-15.8-4-27.8c0-16.8,2.6-29,7.8-36.5S244,222.8,254.3,222.8Zm.4,16.6a11.5,11.5,0,0,0-7.8,2.8c-2.3,1.9-4,5.1-5.2,9.7s-1.8,11.4-1.8,20.2c0,11.6,1.3,19.6,4.1,24s6.3,6.6,10.7,6.6,7.6-2,10-6.2,4.6-13.6,4.6-25.4-1.4-20.3-4.1-24.9S259,239.4,254.7,239.4Z" transform="translate(-41.9 -181.2)"/><path class="cls-3" d="M332.5,222.8h17.3v58.9H358v16.1h-8.2v18.8h-17V297.8H292.9V281.7Zm.3,58.9V251.1l-20.9,30.6Z" transform="translate(-41.9 -181.2)"/></svg>