<svg id="Layer_1" data-name="Layer 1" xmlns="http://www.w3.org/2000/svg" viewBox="0 0 719.6 512">
  <defs>
    <style>

      .cls-1 {
        fill: transparent;
      }

      .cls-2 {
        fill: #3940bc;
      }

      .cls-3 {
        fill: #11c0ce;
      }

      .cls-4 {
        fill: #faaf3c;
      }

      .cls-5 {
        fill: #10c1d0;
      }

      .cls-6 {
        fill: #ec385c;
      }

      .cls-7 {
        fill: #0ec1d0;
      }

      .cls-8 {
        fill: #18bfcd;
      }
    </style>
  </defs>
  <g>
    <g>
      <rect class="cls-1" x="-210.6" y="169.6" width="417.2" height="417.23" transform="translate(-268 109.4) rotate(-45)"/>
      <g>
        <polygon class="cls-2" points="132.4 217.6 132.4 286.6 63.5 217.6 132.4 217.6"/>
        <polygon class="cls-3" points="53.2 207.3 72.9 207.3 53.2 227 53.2 207.3"/>
        <polygon class="cls-4" points="98.1 251.9 98.1 288 62.1 251.9 98.1 251.9"/>
        <polygon class="cls-2" points="55.6 288.6 35.6 308.6 35.6 268.6 55.6 288.6"/>
        <polygon class="cls-5" points="97.9 308.6 77.8 288.6 117.9 288.6 97.9 308.6"/>
        <polygon class="cls-6" points="67.3 339.1 37.6 309.4 97 309.4 67.3 339.1"/>
        <polygon class="cls-2" points="17 389.5 -31.5 341 65.5 341 17 389.5"/>
        <polygon class="cls-4" points="40.1 415.3 60.8 394.6 60.8 436 40.1 415.3"/>
        <polygon class="cls-2" points="94.6 387.1 171.2 387.1 94.6 463.7 94.6 387.1"/>
        <polygon class="cls-7" points="197.7 387.1 145.3 387.1 197.7 334.7 197.7 387.1"/>
        <polygon class="cls-6" points="135.2 346.9 123.7 358.4 123.7 335.4 135.2 346.9"/>
        <polygon class="cls-4" points="223.6 308.8 197.7 334.7 197.7 282.8 223.6 308.8"/>
        <polygon class="cls-6" points="200.3 154.4 200.3 285.7 68.9 154.4 200.3 154.4"/>
        <polygon class="cls-6" points="34.2 188.3 72.1 188.3 34.2 226.2 34.2 188.3"/>
        <polygon class="cls-4" points="-1.5 153.7 68.5 153.7 -1.5 223.7 -1.5 153.7"/>
        <polygon class="cls-2" points="55.1 74.5 131.3 74.5 55.1 150.7 55.1 74.5"/>
        <polygon class="cls-7" points="93.2 113.2 134.4 113.2 93.2 154.4 93.2 113.2"/>
        <polygon class="cls-4" points="136.6 154.4 136.6 74.2 216.8 154.4 136.6 154.4"/>
        <polygon class="cls-2" points="182.4 103.1 182.4 49.5 236 103.1 182.4 103.1"/>
        <polygon class="cls-4" points="209.2 76.3 209.2 50.8 234.6 76.3 209.2 76.3"/>
        <polygon class="cls-4" points="285.3 81.6 265.6 61.9 304.9 61.9 285.3 81.6"/>
        <polygon class="cls-7" points="304.9 61.9 375.8 61.9 304.9 132.8 304.9 61.9"/>
        <polygon class="cls-2" points="284.5 151.9 232.9 151.9 284.5 100.3 284.5 151.9"/>
        <polygon class="cls-6" points="257.7 125 229.5 125 257.7 96.9 257.7 125"/>
        <polygon class="cls-8" points="243.2 110.6 229.1 110.6 243.2 96.6 243.2 110.6"/>
        <polygon class="cls-8" points="234.1 190.1 221.7 202.6 221.7 177.7 234.1 190.1"/>
      </g>
    </g>
    <g>
      <rect class="cls-1" x="513" y="-74.8" width="417.2" height="417.23" transform="translate(116.8 549.4) rotate(-45)"/>
      <g>
        <polygon class="cls-4" points="585.9 295.6 585.9 226.6 654.9 295.6 585.9 295.6"/>
        <polygon class="cls-2" points="665.1 305.8 645.4 305.8 665.1 286.2 665.1 305.8"/>
        <polygon class="cls-6" points="620.2 261.2 620.2 225.2 656.2 261.2 620.2 261.2"/>
        <polygon class="cls-4" points="662.7 224.6 682.7 204.6 682.7 244.6 662.7 224.6"/>
        <polygon class="cls-2" points="620.5 204.6 640.5 224.6 600.5 224.6 620.5 204.6"/>
        <polygon class="cls-7" points="651 174.1 680.7 203.8 621.3 203.8 651 174.1"/>
        <polygon class="cls-4" points="701.3 123.6 749.8 172.2 652.8 172.1 701.3 123.6"/>
        <polygon class="cls-6" points="678.2 97.9 657.5 118.6 657.5 77.1 678.2 97.9"/>
        <polygon class="cls-4" points="623.7 126.1 547.1 126.1 623.7 49.5 623.7 126.1"/>
        <polygon class="cls-2" points="520.6 126.1 573.1 126.1 520.6 178.5 520.6 126.1"/>
        <polygon class="cls-7" points="583.1 166.3 594.6 154.8 594.6 177.7 583.1 166.3"/>
        <polygon class="cls-6" points="494.7 204.4 520.6 178.5 520.6 230.3 494.7 204.4"/>
        <polygon class="cls-7" points="518 358.8 518 227.4 649.4 358.8 518 358.8"/>
        <polygon class="cls-6" points="684.1 324.9 646.2 324.9 684.1 286.9 684.1 324.9"/>
        <polygon class="cls-7" points="719.8 359.5 649.8 359.5 719.8 289.4 719.8 359.5"/>
        <polygon class="cls-4" points="663.3 438.7 587.1 438.7 663.3 362.5 663.3 438.7"/>
        <polygon class="cls-2" points="625.2 400 583.9 400 625.2 358.8 625.2 400"/>
        <polygon class="cls-6" points="581.7 358.8 581.7 439 501.6 358.8 581.7 358.8"/>
        <polygon class="cls-4" points="535.9 410.1 535.9 463.7 482.4 410.1 535.9 410.1"/>
        <polygon class="cls-6" points="509.1 436.9 509.1 462.3 483.7 436.9 509.1 436.9"/>
        <polygon class="cls-6" points="433.1 431.6 452.8 451.3 413.4 451.3 433.1 431.6"/>
        <polygon class="cls-2" points="413.4 451.3 342.5 451.3 413.4 380.4 413.4 451.3"/>
        <polygon class="cls-4" points="433.8 361.3 485.4 361.3 433.8 412.9 433.8 361.3"/>
        <polygon class="cls-7" points="460.6 388.1 488.8 388.1 460.6 416.3 460.6 388.1"/>
        <polygon class="cls-2" points="475.1 402.5 489.2 402.5 475.1 416.6 475.1 402.5"/>
        <polygon class="cls-2" points="484.2 323.1 496.7 310.6 496.7 335.5 484.2 323.1"/>
      </g>
    </g>
  </g>
</svg>
