<svg id="Layer_1" data-name="Layer 1" xmlns="http://www.w3.org/2000/svg" viewBox="0 0 53.8 150"><defs><style>.cls-1{fill:#faf0fd;}.cls-2{fill:#fafafa;}</style></defs><path class="cls-1" d="M39.9,125c4.6,8.3,9.2,16.7,13.9,25H0V0H53.8c-4.7,8.3-9.3,16.7-13.9,25-3.2,10-6.5,20-9.8,30,1.6,6.7,3.3,13.3,4.9,20-1.6,6.7-3.3,13.3-4.9,20C33.4,105,36.7,115,39.9,125Z"/><path class="cls-2" d="M39.9,125c4.6,8.3,9.2,16.7,13.9,25H0V0H53.8c-4.7,8.3-9.3,16.7-13.9,25-3.2,10-6.5,20-9.8,30,1.6,6.7,3.3,13.3,4.9,20-1.6,6.7-3.3,13.3-4.9,20C33.4,105,36.7,115,39.9,125Z"/></svg>