<?xml version="1.0" encoding="utf-8"?>
<!-- Generator: Adobe Illustrator 24.1.1, SVG Export Plug-In . SVG Version: 6.00 Build 0)  -->
<svg version="1.1" id="Layer_1" xmlns="http://www.w3.org/2000/svg" xmlns:xlink="http://www.w3.org/1999/xlink" x="0px" y="0px"
	 viewBox="0 0 276.9 244.3" style="enable-background:new 0 0 276.9 244.3;" xml:space="preserve">
<style type="text/css">
	.st0{opacity:0.25;fill:#535204;enable-background:new    ;}
	.st1{fill:#535204;}
	.st2{fill:#CDB30C;}
	.st3{fill:none;stroke:#CDB30C;stroke-width:5;stroke-linecap:round;stroke-miterlimit:10;}
</style>
<path class="st0" d="M84.1,178.4c8.7-10,16-5.5,28.3-13.9c20.1-13.7,13.7-34.1,29.5-40.7c13.4-5.6,30.9,4.5,40.9,12.7
	c6.9,5.7,12.7,13.8,16.6,24.9c10.8,30.2,40,27.8,48.8,26.3c19.4-3.2,24.3-29.8,26.3-38.5c8.8-36.7-8.1-83.9-41.9-111
	C173.8-8.9,89.7,26.3,64.2,37C27.4,52.4,15.6,69.7,12.3,75.1C-5.9,104,0.4,136.2,4.3,156c7.7,39.7,32.7,88.9,58,88.3
	c7.7-0.2,17.8-5.1,19.9-12.2s-5.2-10.8-7.1-22.9S77.7,185.8,84.1,178.4z"/>
<path class="st0" d="M157.7,177.5c-5.5-7.7-17-11.3-23.4-7.7c-4.2,2.4-2.9,6.2-9.1,13c-3.6,3.9-7.9,7.1-12.8,9.3
	c-10.5,4.9-16.1,1.7-20.5,6.5c-3.2,4-4.2,9.4-2.4,14.2c4.9,12.9,35.4,18.8,54.4,6.6c6.7-4.3,11.8-10.5,14.6-17.9
	C160,197.4,164,186.4,157.7,177.5z"/>
<path class="st1" d="M223.6,58.1l-166-0.4c-5.8,0-10.9,4.1-11.4,9.3l-9.6,109.8c-0.6,5.7,3.6,10.7,9.2,11.3c0.5,0,0.9,0.1,1.4,0
	l184.2,0.4c5.9,0.2,10.7-4.4,10.9-10.3c0-0.3,0-0.6,0-0.9l-7.5-109.9C234.4,62.3,229.4,58.1,223.6,58.1z M220.7,70.3l-53.2,44.4
	l-8,6.7l-21.4,17.9l-21.1-18l-7.8-6.7L57,69.9L220.7,70.3z M55.4,82l45.4,39.3L49,162.9L55.4,82z M48.6,177l60.1-48.9l21.8,19
	c4.3,3.6,10.6,3.6,14.9,0l22.3-18.8l59,49.1L48.6,177z M230.3,166.4l-54.5-44.9l49.3-41.7L230.3,166.4z"/>
<circle class="st1" cx="117.8" cy="85.2" r="5.4"/>
<circle class="st1" cx="162.6" cy="85.2" r="5.4"/>
<path class="st1" d="M139.8,115.5c-2.1,0-4.1-0.3-6.1-0.9c-5-1.5-9.3-4.8-12.2-9.1c-0.7-1.2-0.4-2.7,0.7-3.5
	c1.2-0.7,2.7-0.4,3.5,0.7c2.2,3.4,5.5,5.9,9.4,7.1c3.1,0.9,6.3,0.9,9.4,0c3.9-1.2,7.3-3.7,9.6-7.1c0.7-1.1,2.2-1.5,3.3-0.8
	c0,0,0.1,0,0.1,0.1c1.2,0.8,1.5,2.3,0.8,3.5c-2.9,4.4-7.3,7.6-12.4,9.1C143.9,115.2,141.9,115.5,139.8,115.5z"/>
<path class="st2" d="M22.1,30.2L7.2,23.6c-0.5-0.3-1.1-0.1-1.4,0.3l-5.2,9.5c-0.3,0.5-0.1,1.2,0.5,1.5c0,0,0,0,0,0l16.5,7.4
	c0.6,0.2,1.2,0,1.5-0.6l3.7-10.2C22.9,31,22.6,30.4,22.1,30.2z M21.4,31.2l-6.6,1.9l-1,0.3l-2.6,0.7L10,31.7l-0.4-1l-2.9-6.1
	L21.4,31.2z M6,25.7L8.6,31l-6.4,1.7L6,25.7z M1.6,33.9l7.4-2l1.2,2.6c0.1,0.3,0.3,0.5,0.6,0.6h0.7l2.8-0.8l3.3,6.8L1.6,33.9z
	 M18.4,40.2L15.3,34l6.1-1.8L18.4,40.2z"/>
<path class="st2" d="M29.5,51.3l-9.4-4.2c-0.3-0.1-0.7,0-0.9,0.3l-3.3,6c-0.2,0.3,0,0.7,0.4,0.9l10.4,4.6c0.3,0.1,0.7,0,0.9-0.3
	l2.3-6.5C30,51.8,29.8,51.4,29.5,51.3z M29,52l-4.1,1.1l-0.6,0.2l-1.7,0.5l-0.7-1.6l-0.3-0.5l-1.8-3.9L29,52z M19.4,48.5l1.6,3.3
	l-4,1.1L19.4,48.5z M16.6,53.7l4.6-1.3L22,54c0.1,0.2,0.2,0.3,0.4,0.4h0.4l1.8-0.5l2.1,4.3L16.6,53.7z M27.2,57.6l-2-3.9l3.9-1.1
	L27.2,57.6z"/>
<path class="st2" d="M54.2,11L27.1,4.9c-0.9-0.2-1.8,0.3-2.2,1.1l-5.5,17.6c-0.3,0.8,0.1,1.8,0.9,2.1c0.1,0.1,0.3,0.1,0.4,0.1
	l30,6.8c0.9,0.3,1.9-0.2,2.1-1.1c0-0.1,0.1-0.2,0.1-0.3L55.7,13C55.8,12,55.2,11.2,54.2,11z M53.3,12.9L43,18.2L41.5,19l-4.2,2.2
	l-2.8-3.7l-1-1.4l-6.9-9.2L53.3,12.9z M25.9,8.8l6,8.1l-10,4.9L25.9,8.8z M21.3,24.1l11.6-5.8l2.9,3.9c0.3,0.3,0.7,0.6,1.1,0.7
	c0.4,0.1,0.9,0,1.3-0.2l4.3-2.2l7.9,10.2L21.3,24.1z M51.4,29l-7.3-9.3l9.6-5.1L51.4,29z"/>
<circle class="st2" cx="265.1" cy="155.4" r="4.3"/>
<circle class="st2" cx="263.5" cy="164.3" r="3.2"/>
<polygon class="st2" points="228.4,46.4 219.6,49.6 217.9,58.9 225.1,64.9 234,61.7 235.6,52.4 "/>
<path class="st2" d="M26.2,162.8L26.2,162.8c0.2,0.9,1,1.5,1.9,1.4l0,0c1.2,0.1,2,1.1,1.9,2.2c0,0.6-0.3,1.1-0.7,1.5l0,0
	c-0.7,0.5-1,1.4-0.8,2.2l0,0c0.4,1-0.1,2.2-1.1,2.6c-0.7,0.3-1.4,0.1-2-0.3l0,0c-0.7-0.5-1.6-0.5-2.3,0l0,0c-1,0.6-2.3,0.4-2.9-0.6
	c-0.3-0.5-0.4-1.1-0.3-1.7l0,0c0.3-0.8,0-1.7-0.7-2.2l0,0c-0.9-0.6-1.2-1.8-0.7-2.7c0.4-0.6,1.1-1,1.9-1l0,0c0.9,0,1.7-0.5,1.9-1.4
	l0,0c0.4-1.1,1.7-1.6,2.7-1.2C25.6,161.8,26,162.3,26.2,162.8z"/>
<path class="st2" d="M31.2,133.4c-5.3,0.1-9.6-4.2-9.7-9.5c-0.1-5.3,4.2-9.6,9.5-9.7s9.6,4.2,9.7,9.5c0,0,0,0.1,0,0.1
	C40.7,129.1,36.5,133.3,31.2,133.4z M31.2,118.2c-3.1,0-5.6,2.5-5.6,5.6c0,3.1,2.5,5.6,5.6,5.6c3.1,0,5.6-2.5,5.6-5.6
	C36.8,120.7,34.3,118.2,31.2,118.2z"/>
<line class="st3" x1="138.7" y1="22.3" x2="138.7" y2="43.2"/>
<line class="st3" x1="162.5" y1="32.7" x2="151.3" y2="43.9"/>
<line class="st3" x1="114.3" y1="33" x2="125.5" y2="44.2"/>
<path class="st2" d="M222.5,3.3l-25.9,25.9c-0.4,0.3-0.8,0.5-1.3,0.5c-0.5,0-1-0.2-1.4-0.5l-10.4-10.4c-0.7-0.8-0.7-1.9,0-2.7
	c0.7-0.7,1.8-0.8,2.5-0.2c0.1,0,0.1,0.1,0.2,0.2l9.1,9l24.5-24.6c0.8-0.7,1.9-0.7,2.7,0c0.8,0.7,0.8,1.9,0.1,2.7
	C222.6,3.2,222.5,3.3,222.5,3.3z"/>
</svg>
