<svg id="Layer_1" data-name="Layer 1" xmlns="http://www.w3.org/2000/svg" viewBox="0 0 236.3 236.3"><defs><style>.cls-1{fill:#fca08b;}.cls-2{fill:#ff645a;}.cls-3{fill:#f7ddc4;}.cls-4{fill:#d4e2d4;}.cls-5{fill:#afcbc1;}.cls-6{fill:#e8cfb9;}.cls-7{fill:#d7b9a4;}.cls-8{fill:#c1272d;}.cls-9{fill:#f8eddf;}.cls-10{fill:#f9b56e;}.cls-11{fill:#96aea5;}.cls-12{fill:#fdf5ef;}.cls-13{fill:#50807d;}.cls-14{fill:#ddb171;}.cls-15{fill:#fcee21;}.cls-16{fill:#f0463c;}.cls-17{fill:#5d9594;}.cls-18{fill:#2c79b3;}</style></defs><path class="cls-1" d="M246.8,127.1A118.1,118.1,0,0,1,130.9,245.2h-2.3A118.1,118.1,0,1,1,246.8,127.1Z" transform="translate(-10.5 -9)"/><path class="cls-2" d="M138.6,102.3v3.8H118.1V99.5h.5c1.9-.6,3.9-.8,5.5-2.2s1.4-2.1.1-3.5a4.4,4.4,0,0,1-.8-1.5,22.6,22.6,0,0,1-.5-8.2l.3-2.5h0a6.2,6.2,0,0,1,5.2-4,7,7,0,0,1,4.4.7,5.3,5.3,0,0,1,2.5,2.4,8.6,8.6,0,0,1,.7,2.1h0a13.3,13.3,0,0,1,.2,2.6l-1.8,6.7a4.8,4.8,0,0,1-2.1,2.7c-1.1.8-1,1.5-.6,2.5a7.3,7.3,0,0,0,3.3,3.2c.5.3,1.2.4,1.6,1.1A2.1,2.1,0,0,1,138.6,102.3Z" transform="translate(-10.5 -9)"/><path class="cls-3" d="M186.2,216.4a101.6,101.6,0,0,0-9.3-16.7c-1.2-1.7-2.5-4.9-4.6-9.1a9.9,9.9,0,0,1-1-7.7l5.1-16.4,10.8-34.7c.8-2.5,1.6-4.9,1.2-7.5s-1.7-6.9-4.9-9.2-8.8-6.2-13.2-9.3a55.3,55.3,0,0,0-6.8-4.8l-2.7,22.1c-.8,6.3-1.4,12.7-2.1,19-.2,1.4-.4,2.8-.7,4.2s-1.8,3.7-4.2,3.5L137.7,148l-.5-.2c-3.6-.1-7.1-.6-10.6-1-.7-.1-1.3-.2-1.3-1-.1-3.9-.2-7.8-.2-11.7a7.6,7.6,0,0,1-.1-3V128c0-.5-.1-.9-.1-1.3s-.2-2.7-.3-4.1-.1-4.4-.1-6.6a37.8,37.8,0,0,1-.5-6.7c-.2-1.1-.5-2.1-.8-3.2v-.2c-.2-.1-.2-.3-.4-.4v-.3c-.9-.2-1.1-1-1.3-1.7l-.5-.4-.2-.2-.3-.2c-.6.1-1.1-.4-1.5-.7l-.9-.5a14.4,14.4,0,0,0-5.4-1h-.3c-2,.1-3.6,1.1-5.3,2-3.3,3-4.1,6.8-4.1,11.2-.1,6.9-.4,13.9-.7,20.8-.2,3.3.1,6.8-1.3,9.9.1,2.4-.8,4.6-1.5,6.7a62.4,62.4,0,0,0-3.3,14.2,31.6,31.6,0,0,0-.3,3.2,57.9,57.9,0,0,0,12.7,39c1.8,2.4,3,4.5,4,5.8l18.3,31.9a117.2,117.2,0,0,0,62.7-19.4Zm-66.1-96.6a3.3,3.3,0,0,1-2.5,1.3,15.6,15.6,0,0,1-10.2-.7,1.6,1.6,0,0,1-.9-.9c-.8-2.5-.2-5.1-.4-7.6a9.5,9.5,0,0,1,1.1-4.6,7.8,7.8,0,0,1,7.4-3.5,6.9,6.9,0,0,1,3.5,1.8l.6.5a7.2,7.2,0,0,1,1.8,3.6c.5,2.9.2,5.8.3,8.7A1.3,1.3,0,0,1,120.1,119.8Z" transform="translate(-10.5 -9)"/><path class="cls-4" d="M92.5,100.4c-.1-4.2.7-8.2,1.1-12.3s.8-7.9,1.3-11.8L96.4,62l1.2-10.8c.1-1.4.2-2.7.4-4.1.6-3.4,2.9-4.9,6.4-4.4s8,.9,12,1.4l13.8,1.5c3.6.5,7.3.8,11,1.2l10.9,1.3c3.6.4,7.3.8,11,1s5.6,2.3,5.3,6.3-1.1,9.8-1.5,14.7-1.1,9.2-1.6,13.8-.8,7.1-1.1,10.6-.5,4-.8,5.9l-1-.5-9.7-6.7V90.5c.2-.3.2-.5-.1-.7A23.8,23.8,0,0,0,135,68.7a24.1,24.1,0,0,0-25.9,9.1,25.1,25.1,0,0,0-4.5,14c-2.1.7-3.5,2.5-5.3,3.6S95,99.1,92.5,100.4Zm21.2-47.5c-2.3-.3-4.1-1.2-4.7-3.8-.3-1.1-1-.1-1.1.3a3.4,3.4,0,0,1-4,2.2c-.4,0-.9-.1-1.1.4s.2.7.5,1a3.3,3.3,0,0,1,1,4.4.8.8,0,0,0,0,1.1c.3.3.6,0,.9-.1a3.6,3.6,0,0,1,4.8.6c.2.2.5.5.9.3a.9.9,0,0,0,.2-1.1c-.7-2,.2-3.2,1.9-4.2A1.3,1.3,0,0,0,113.7,52.9Z" transform="translate(-10.5 -9)"/><path class="cls-5" d="M152.7,93.2l9.7,6.7,1,.5a1.3,1.3,0,0,1,.1.6l-2.7,22.1c-.8,6.3-1.4,12.7-2.1,19-.2,1.4-.4,2.8-.7,4.2s-1.9,3.8-4.1,3.5L137.7,148l-.5-.2a5.9,5.9,0,0,0-.2-1.3l-3.9-11.6h0a20.9,20.9,0,0,0,4.3.4c1,.1,1.2-.4,1.2-1.2s.2-1.8-1-1.8-3.5-.6-5.2-.4h-.3l-1.1-3h1.6c1.2.1,1.1-.8,1.2-1.6s-.1-1.5-1.1-1.5a9.7,9.7,0,0,1-2.4-.2l-.6-.2a11.6,11.6,0,0,0-.4-1.8l-2.4-7.4a24.9,24.9,0,0,0,8.2-.7c.8-.3,1.8-.2,2.1-1.2h0l.8-.2c2.4-1.1,4.8-2.2,6.7-4.3A23.9,23.9,0,0,0,152.7,93.2Z" transform="translate(-10.5 -9)"/><path class="cls-5" d="M92.5,100.4c2.5-1.3,4.5-3.4,6.8-5s3.2-2.9,5.3-3.6a25.1,25.1,0,0,0,2.5,10.7c-3.3,3-4.1,6.8-4.1,11.2-.1,6.9-.4,13.9-.7,20.8-.2,3.3.1,6.7-1.3,9.9a8,8,0,0,0-3.1-.3l-6.2-1a4.3,4.3,0,0,1-3.5-5c.4-2.8.6-5.6.8-8.4s.7-6.5,1.1-9.7.8-7.6,1.3-11.4.4-4.8.7-7.2Z" transform="translate(-10.5 -9)"/><path class="cls-3" d="M92.1,101.4c-.3,2.4-.5,4.8-.7,7.2s-.9,7.6-1.3,11.4-.7,6.5-1.1,9.7c-.7,0-.9.6-1.2,1.1-2.6,3.3-4.7,7.1-9.4,8.2s-7.4-.9-9.6-4.4a9.4,9.4,0,0,1,.4-10.1c3.3-4.4,6.5-8.8,9.8-13.1,1.5-2,3.8-3.3,5.8-4.9l6.2-4.8A2,2,0,0,1,92.1,101.4Z" transform="translate(-10.5 -9)"/><path class="cls-6" d="M78.4,139c4.7-1.1,6.8-4.9,9.4-8.2.3-.5.5-1.1,1.2-1.1-.2,2.8-.4,5.6-.8,8.4a4.3,4.3,0,0,0,3.5,5l6.2,1-4.3,5.4a8.1,8.1,0,0,1-5.9,3.1C80.7,153.6,74.9,146.4,78.4,139Z" transform="translate(-10.5 -9)"/><path class="cls-7" d="M87.7,152.6a8.1,8.1,0,0,0,5.9-3.1l4.3-5.4a8,8,0,0,1,3.1.3c.1,2.4-.8,4.6-1.5,6.7a62.4,62.4,0,0,0-3.3,14.2c-5.1.2-10.6-5.5-8.8-11.5A5.3,5.3,0,0,0,87.7,152.6Z" transform="translate(-10.5 -9)"/><path class="cls-8" d="M152.7,93.2a23.9,23.9,0,0,1-8,16.4c-.5-.3-.5-.9-.8-1.4s-1.5-3.7-3.5-4.4a1,1,0,0,0-.7-.8h0a1.6,1.6,0,0,0-1.1-.7,2.1,2.1,0,0,0-2-.7c-.4-.7-1.1-.8-1.6-1.1a7.3,7.3,0,0,1-3.3-3.2c-.4-1-.5-1.7.6-2.5a4.8,4.8,0,0,0,2.1-2.7l1.8-6.7a13.3,13.3,0,0,0-.2-2.6h0a8.6,8.6,0,0,0-.7-2.1,5.3,5.3,0,0,0-2.5-2.4,7,7,0,0,0-4.4-.7,6.2,6.2,0,0,0-5.2,4h0l-.3,2.5a22.6,22.6,0,0,0,.5,8.2,4.4,4.4,0,0,0,.8,1.5c1.3,1.4,1.3,2.1-.1,3.5s-3.6,1.6-5.5,2.2h-.5c-1.9.4-3.8,1.1-5.7,1s-3.6,1.1-5.3,2a25.1,25.1,0,0,1-2.5-10.7,24.4,24.4,0,0,1,4.6-14,24,24,0,0,1,43.4,12,1.7,1.7,0,0,0,.1.7Z" transform="translate(-10.5 -9)"/><path class="cls-9" d="M106.5,119.5c-.8-2.5-.2-5.1-.4-7.6a9.5,9.5,0,0,1,1.1-4.6,7.8,7.8,0,0,1,7.4-3.5,7.6,7.6,0,0,1,5.9,5.9c.5,2.9.2,5.8.3,8.7a1.6,1.6,0,0,1-.7,1.5c0-.8-.5-1.1-1-1.5C115.7,116.2,110.2,116.6,106.5,119.5Z" transform="translate(-10.5 -9)"/><path class="cls-10" d="M122.8,105.5v-.3c2.6.2,5.2,1,7.8.6s3.3-.4,4.2-2h0c.5,0,.9-.2.9-.8h0c.4,0,.5-.2.5-.5h2.4c.1.6.5.8,1.1.7h0l-.3,1.2a40.7,40.7,0,0,0-2.2,9.9h0l-5.2,1.2c-4.3.9-5.2.3-6.6-3.7-.3-.8-.2-2-1.4-2.3s-.6-2.3-.8-3.4Z" transform="translate(-10.5 -9)"/><path class="cls-11" d="M133.1,134.9l3.9,11.6a5.9,5.9,0,0,1,.2,1.3c-3.6-.1-7.1-.6-10.6-1-.7-.1-1.3-.2-1.3-1-.1-3.9-.2-7.8-.2-11.7Z" transform="translate(-10.5 -9)"/><path class="cls-12" d="M106.5,119.5c3.7-2.9,9.2-3.3,12.6-1.1.5.4,1,.7,1,1.5a3.9,3.9,0,0,1-2.5,1.2,15.6,15.6,0,0,1-10.2-.7A2,2,0,0,1,106.5,119.5Z" transform="translate(-10.5 -9)"/><path class="cls-11" d="M126.9,116l2.4,7.4a11.6,11.6,0,0,1,.4,1.8,6.7,6.7,0,0,1-2-.1c-1.4-.4-2.6-.3-2.8,1.6-.6-1.3-.2-2.7-.3-4s-.1-4.5-.1-6.7Z" transform="translate(-10.5 -9)"/><path class="cls-13" d="M133.1,134.9l-8-.8a7.6,7.6,0,0,1-.1-3c2.4-.2,4.7.4,7.1.6h.3c-.1,1.1.5,2,.7,3Z" transform="translate(-10.5 -9)"/><path class="cls-11" d="M132.1,131.7c-2.4-.2-4.7-.8-7.1-.6V128l5.7.4.3.3Z" transform="translate(-10.5 -9)"/><path class="cls-14" d="M126.9,116h-2.4a37.8,37.8,0,0,1-.5-6.7c1.2.3,1.1,1.5,1.4,2.3,1.4,4,2.3,4.6,6.6,3.7l5.2-1.2c-.3,1-1.3.9-2.1,1.2A24.9,24.9,0,0,1,126.9,116Z" transform="translate(-10.5 -9)"/><path class="cls-13" d="M130.7,128.4,125,128c0-.5-.1-.9-.1-1.3.2-1.9,1.4-2,2.8-1.6a6.7,6.7,0,0,0,2,.1l.6.2C130.5,126.4,130.6,127.4,130.7,128.4Z" transform="translate(-10.5 -9)"/><path class="cls-14" d="M134.8,103.8c-.9,1.6-2.6,1.8-4.2,2s-5.2-.4-7.8-.6c-.9-.2-1.1-1-1.3-1.7a18.1,18.1,0,0,0,7.6,1.8C131.2,105.5,133,104.6,134.8,103.8Z" transform="translate(-10.5 -9)"/><path class="cls-14" d="M118.6,99.5l1.9,3.2c-.6.1-1.1-.4-1.5-.7-2-1.4-4.3-1.4-6.6-1.5C114.5,100.6,116.5,99.8,118.6,99.5Z" transform="translate(-10.5 -9)"/><path class="cls-14" d="M120.8,102.9l.2.2Z" transform="translate(-10.5 -9)"/><path class="cls-14" d="M122.8,105.5l.4.4Z" transform="translate(-10.5 -9)"/><path class="cls-15" d="M113.7,52.9A1.3,1.3,0,0,1,113,54c-1.7,1-2.6,2.2-1.9,4.2a.9.9,0,0,1-.2,1.1c-.4.2-.7-.1-.9-.3a3.6,3.6,0,0,0-4.8-.6c-.3.1-.6.4-.9.1a.8.8,0,0,1,0-1.1,3.3,3.3,0,0,0-1-4.4c-.3-.3-.6-.6-.5-1s.7-.4,1.1-.4a3.4,3.4,0,0,0,4-2.2c.1-.4.8-1.4,1.1-.3C109.6,51.7,111.4,52.6,113.7,52.9Z" transform="translate(-10.5 -9)"/><path class="cls-5" d="M152.7,90.5v-.7C152.9,90,152.9,90.2,152.7,90.5Z" transform="translate(-10.5 -9)"/><path class="cls-16" d="M140.4,103.7c2,.9,2.7,2.7,3.5,4.5s.3,1.1.8,1.4c-1.9,2.1-4.3,3.2-6.7,4.3A22.8,22.8,0,0,1,140.4,103.7Z" transform="translate(-10.5 -9)"/><path class="cls-17" d="M133.1,134.8c-.2-1-.8-1.9-.7-3,1.7-.2,3.4.4,5.2.4s.9,1,1,1.8-.2,1.3-1.2,1.2A20.9,20.9,0,0,1,133.1,134.8Z" transform="translate(-10.5 -9)"/><path class="cls-17" d="M130.7,128.4c-.1-1-.2-2-.4-3a9.7,9.7,0,0,0,2.4.2c1,0,1.1.7,1.1,1.5s0,1.7-1.2,1.6H131Z" transform="translate(-10.5 -9)"/><path class="cls-14" d="M140.4,103.7a22.8,22.8,0,0,0-2.4,10.2l-.8.2a40.7,40.7,0,0,1,2.2-9.9l.3-1.2A1,1,0,0,1,140.4,103.7Z" transform="translate(-10.5 -9)"/><path class="cls-14" d="M138.6,102.4h-2.4a5.9,5.9,0,0,0,.4-.8A2,2,0,0,1,138.6,102.4Z" transform="translate(-10.5 -9)"/><path class="cls-14" d="M139.7,103c-.6.1-1-.1-1.1-.7A1.6,1.6,0,0,1,139.7,103Z" transform="translate(-10.5 -9)"/><path class="cls-18" d="M136.4,82.9l-.3-.2Z" transform="translate(-10.5 -9)"/><path class="cls-14" d="M135.7,103c0,.6-.4.8-.9.8A1.4,1.4,0,0,1,135.7,103Z" transform="translate(-10.5 -9)"/><path class="cls-14" d="M136.2,102.5c0,.3-.1.5-.5.5A.8.8,0,0,1,136.2,102.5Z" transform="translate(-10.5 -9)"/></svg>