<svg id="Layer_1" data-name="Layer 1" xmlns="http://www.w3.org/2000/svg" viewBox="0 0 242.4 242.4"><defs><style>.cls-1{fill:#fca08b;}.cls-2{fill:#384955;}.cls-3{fill:#ecf8fa;}.cls-4{fill:#fdbaa0;}.cls-5{fill:#ff8f66;}.cls-6{fill:#edf9fb;}.cls-7{fill:#fa805e;}.cls-8{fill:#e6977f;}.cls-9{fill:#3d4b55;}.cls-10{fill:#5b7280;}.cls-11{fill:#4b5a65;}.cls-12{fill:#bedee5;}.cls-13{fill:#eef2f0;}.cls-14{fill:#1f90a8;}</style></defs><path class="cls-1" d="M249.2,128a123.5,123.5,0,0,1-1.4,18.4,121.2,121.2,0,1,1,1.4-18.4Z" transform="translate(-6.8 -6.8)"/><path class="cls-2" d="M247.8,146.4a121.1,121.1,0,0,1-35.3,68.5l-.4-.5-7.5-9.1c-3.3-4.1-6.6-8.2-9.5-12.6a28.6,28.6,0,0,1-2.4-4.2,3.8,3.8,0,0,1,.4-4.2l.3-.4a70.1,70.1,0,0,1,7.3-7.1c4.3-3.6,8.6-7.2,12.7-11.1a59.9,59.9,0,0,0,6.5-6.8c1.7-2.1,3.1-4.4,4.6-6.6a47.8,47.8,0,0,1,7.1-8.4l2.1-1.3a7,7,0,0,1,6,.1l7.2,3.3Z" transform="translate(-6.8 -6.8)"/><path class="cls-3" d="M40.1,80.5l-.9-2.7c-.2-.6-.2-.6.5-.9l10.1-3.3,10.7-3.5c2.8-.9,5.6-1.9,8.5-2.7s5.7-2,8.6-2.8l8-2.7c2.8-.8,5.6-1.8,8.4-2.7l8.6-2.8,8.5-2.8,8.1-2.6,8.3-2.7c1.8-.6,1.8-.6,2.4,1.1,1.4,4.5,2.9,8.9,4.3,13.4l2.8,8.4c.8,2.7,1.8,5.4,2.6,8.1s.8,2.4,1.1,3.6a16.4,16.4,0,0,0-3.2.5c-.9.2-1,.4-.8,1.3a20.7,20.7,0,0,0-2.5,1.5c-1.6,1-3.1,2.2-4.7,3.3L125,91c-1.1.3-1.1.2-.6,1.4l.2.2c-2.1.8-4.2,1.7-6.2,2.7a14.2,14.2,0,0,0-2.9,2.1,2.1,2.1,0,0,0-.4,2.7c.1.3.4.6.4.9l-5,.6a6.2,6.2,0,0,0-3,.9c-1.6.6-3.2,1.5-4.8,2.2a4.4,4.4,0,0,0-1.6,1c-.6,0-1,.2-1.1.7s.5.5.9.7h.1a26.6,26.6,0,0,0,3.9,1.6c.4.1.9.1,1.2.5l-.6.2-3.6,1.2c-.5.2-.5.3-.4.9s.3.5.8.4l2.1-.8a24.3,24.3,0,0,0,3.8-1.3,6.6,6.6,0,0,0,2.3.4,9.7,9.7,0,0,1,1.7,0v.2l-9.3,3.1c-.5.1-.5.4-.3.8s.2.6.6.4l.7-.2,8.6-2.8c.2.6.9.9,1.1,1.5l-5.3,1.8-4.4,1.4c-.2.1-.4.1-.5.3a1.6,1.6,0,0,0,.3.9c.2.2.4.1.6,0l10.4-3.4a3.2,3.2,0,0,1,1.3,1.5l-.9.2-8.1,2.7a19.9,19.9,0,0,0-2.6.9.4.4,0,0,0,.1.5c.2.7.2.7.8.5l1.9-.6,7.8-2.6c1.2-.4,1.2-.3,1-1.6a1,1,0,0,1,.7.4l1.1,1.3c1.6,1.6,3.2,3.4,4.7,5.1s4.1,4.4,6.2,6.5c.2.3.5.4.5.8l-11.2,3.7-3.4,1.1c0,.2.1.3.1.5s.2.8,1.1.5l7.1-2.3,7.3-2.4c.5.4,1.1.7,1.2,1.4l-2,.7c.1.2.1.4.2.6s.2.6.8.4l2.1-.7a4.4,4.4,0,0,1,1.3,1.4l-3.2,1.1-1.2.4c-.5.2-.2.6-.1.9s.2.4.6.3,3.3-1,4.9-1.7l.3.2c1.6,1.8,3.3,3.3,4.9,5l-1.6.5-4.1,1.3c-.2.1-.4.1-.4.4a.7.7,0,0,0,.9.8l6.2-2a3.8,3.8,0,0,1,1.5,1.3l-.9.3c-.8.3-.8.3-.5,1a.5.5,0,0,0,.7.4l1.9-.7a3.1,3.1,0,0,1,1.7,1.3l-.7.2-9.4,3.1c-.6.3-.6.3-.4.9s.2.6.8.4l11-3.7c.7.4,1.4.6,1.8,1.3l-11,3.6-2.7.9a.4.4,0,0,0-.4.4.7.7,0,0,0,1,.7l14.5-4.7a2.5,2.5,0,0,1,.9.4,112.7,112.7,0,0,0,12,6.1,10.7,10.7,0,0,1,2.2,1c-.2.1-.2.3-.1.5s.5,1.4.7,2.1l3.6,11,.2.5a.6.6,0,0,1-.5.8l-2.6.8-1,.4-5.4,1.7-8.4,2.8-8.6,2.8-7.9,2.5-17.2,5.6-7.7,2.6-17.6,5.7L80,200c-.9.3-.9.3-1.2-.6s-.7-2.4-1.1-3.5c-.9-2.7-1.8-5.4-2.6-8l-5.4-16.6-2.8-8.4c-1.7-5.4-3.4-10.7-5.2-16s-3.5-11.1-5.3-16.6L51,113.9c-.9-2.9-1.9-5.7-2.8-8.5s-1.8-5.3-2.6-8-1.9-6-2.9-9S40.9,83.1,40.1,80.5Zm50.6,35.1a18,18,0,0,1,.5-1.9,10.6,10.6,0,0,0,.4-1.9,1.3,1.3,0,0,0-1.6-1.5,1.4,1.4,0,0,0-1.2,1,12.9,12.9,0,0,1-.7,2.1l-4.2,1.3-6.3,2c-.7.3-1.2.6-1.4,1.3a2,2,0,0,0,.1,1.3c.3.9.5,1.8.8,2.7.8,2.5,1.7,5,2.4,7.6a2,2,0,0,0,2.7,1.3l2.6-.8,7.7-2.5a1.6,1.6,0,0,0,1.3-1.1,2.6,2.6,0,0,0,0-1.5c-.6-1.8-1.1-3.6-1.8-5.4A31,31,0,0,0,90.7,115.6Zm15.6,37.6c0-.8-.4-1.1-1.1-.9l-4.7,1.6-20,6.6c-.8.2-.8.2-.6,1s.6.3,1,.2l20.6-6.8,4.3-1.4C106,153.4,106.3,153.4,106.3,153.2Zm-3.4-10.3c.1-.8-.4-1.1-1.1-.9l-6.4,2.1-16.8,5.6-1.9.6c-.5.2-.2.5-.2.8s.2.6.7.4l3.1-1,21.4-7.1.9-.3C102.8,143.1,102.9,143,102.9,142.9ZM81.7,166.6v.2c.3,1,.3,1,1.2.7l5.6-1.9,7.6-2.5,11.6-3.8c.6-.2.6-.2.4-.8s-.2-.6-.8-.5l-3.7,1.2-21.1,7C82.2,166.3,81.9,166.3,81.7,166.6Zm-7.3-22a.8.8,0,0,1,.1.4c.4,1,.3.9,1.1.6l5.8-1.9L95.6,139l4.9-1.6c.2,0,.5,0,.5-.3a1.4,1.4,0,0,0-.3-.9c-.2-.2-.4,0-.6,0h-.3l-18.5,6.1ZM69.9,99.5a2.8,2.8,0,0,0,.1.9c1.1,3.3,2.2,6.7,3.2,10.1.5,1.4,1.3,1.8,2.8,1.3l8.5-2.7,1.8-.6a1.8,1.8,0,0,0,1.2-2.4l-.9-2.8-2.4-7.6a1.8,1.8,0,0,0-2.5-1.3l-5.5,1.7-4.9,1.6A1.6,1.6,0,0,0,69.9,99.5ZM63.6,80.3a1.9,1.9,0,0,0,.2.7l3.3,10.5a1.7,1.7,0,0,0,2.4,1.2L80,89.4a1.8,1.8,0,0,0,1.3-2.6L78,76.6c-.4-1.4-1.2-1.8-2.7-1.4l-5.1,1.6-5.1,1.7A1.8,1.8,0,0,0,63.6,80.3Zm47.8,77.8,21.3-7.1c-.1-.2-.1-.4-.2-.6s-.2-.6-.8-.4l-2.3.7-17.5,5.8C110.9,156.8,110.9,156.8,111.4,158.1ZM106.2,142l.7-.3,6.5-2.1,13.4-4.4c.5-.2.7-.3.5-.8s-.2-.7-.9-.4l-11.7,3.8-8.3,2.7c-.7.3-.9.6-.5,1.3Zm-2.5-7a2.5,2.5,0,0,1,.2.7c.1.4.3.6.7.4h.3l19.5-6.4c.4-.2.8-.2,1.1-.5a1.4,1.4,0,0,1-.2-.6c-.1-.4-.3-.6-.7-.4h-.3l-13.2,4.4Zm26.4,9.1-.7.2-16,5.3-3.9,1.3c-.2,0-.4.1-.4.3a1.4,1.4,0,0,0,.3.9c.2.2.4.1.6,0h.3l9.5-3.2,10.2-3.3c.8-.3.9-.4.5-1.2S130.4,144.1,130.1,144.1Zm-9.7,7.7,1.2-.3,11.4-3.8,5-1.6c.2-.1.4-.1.4-.4s-.4-1-1-.8l-.6.2-7.9,2.6-8.6,2.8c-.3.1-.6.2-.5.5S119.9,151.8,120.4,151.8ZM108.6,73.9c0-.7-.4-1-1.1-.8L91.4,78.4c-.8.3-.8.4-.4,1.2s.2.3.4.2l.6-.2,14.2-4.7,2-.6C108.4,74.2,108.6,74.2,108.6,73.9Zm-2-5.9c0-.1-.1-.2-.1-.4s-.3-.5-.7-.3h-.3l-9.6,3.1-6.6,2.2c-.1.1-.4,0-.5.3s.4,1.1,1,.9h.3l15.8-5.2.5-.2C106.6,68.4,106.6,68.2,106.6,68Zm6.3,18.5c.1-.7-.3-1-.9-.8L95.7,91c-.6.2-.7.8-.2,1.3s.2.1.3.1l.6-.2,14-4.7,2.1-.6C112.7,86.8,113,86.7,112.9,86.5Zm-12.7,78.1c0-.7-.4-.9-1.1-.7h0l-10.5,3.5-5.4,1.8c-.2,0-.5,0-.5.3a1,1,0,0,0,.3.9c.1.3.4.1.6,0h.2l14.5-4.7,1.5-.5C100,165,100.2,164.9,100.2,164.6Zm-6-16.8h-.6L78.2,153l-.7.3c-.1,0-.1.1-.1.3s.3,1,1,.8l16-5.3c.5-.2.6-.4.4-.8S94.7,147.7,94.2,147.8Zm-13.1,17,.7-.2,10.3-3.4,5.7-1.9c.1-.1.4,0,.5-.3a1.4,1.4,0,0,0-.3-.9c-.2-.3-.4-.1-.6,0h-.3l-15.2,5a3.1,3.1,0,0,0-1.2.5A7.6,7.6,0,0,0,81.1,164.8ZM93,143.1c-.3-1.3-.3-1.3-1.4-.9l-7.4,2.4L76,147.3c-.6.2-.6.3-.4.8s.2.6.7.5l2.9-.9,8.7-2.9ZM97.1,97a.8.8,0,0,0,0,.5c.3.8.3.8,1.1.5l4.2-1.4,8.2-2.7,4.3-1.4c-.3-1.3-.3-1.3-1.4-.9l-4.8,1.6-8.2,2.7Zm4,61.2.5-.2,13.8-4.5c.8-.2.8-.5.5-1.2a.4.4,0,0,0-.5-.2l-.6.2-12,4-1.8.6c-.3.1-.4.3-.3.5S100.8,158,101.1,158.2Zm-3.2-10.3.5-.2,11.5-3.8,2.3-.7c.4-.1.6-.2.4-.7s-.2-.7-1-.5l-13.7,4.5a.7.7,0,0,0-.3,1.3Zm5.3,16.1.6-.2,8.1-2.7,5.5-1.8c.2-.1.5-.1.5-.4s-.3-1.1-.9-.9l-4.8,1.6-8.9,3c-.8.2-.9.5-.5,1.1S103,164,103.2,164Zm-7.9-23a.9.9,0,0,1,.1.5c.3.7.3.7,1.1.5l2-.7,11.7-3.9c.7-.2.7-.2.5-.8s-.3-.6-.9-.4l-9,3Zm29.6-72.3c-.4-1.4-.2-1.2-1.4-.8l-10.4,3.4-2.3.8c-.2,0-.5.1-.5.3a1.2,1.2,0,0,0,.3.9c.2.3.5,0,.7,0h.2l11.8-3.9A7.6,7.6,0,0,0,124.9,68.7ZM117,91.8l.7-.2,10.6-3.5,2.5-.8c.2-.1.4-.1.4-.3a1.7,1.7,0,0,0-.3-1c-.2-.2-.4,0-.6.1l-13.1,4.2c-.6.3-.7.7-.3,1.3S117.1,91.8,117,91.8Zm-8.6-25.4c.3,1.3.3,1.3,1.4.9l6.9-2.2,5.7-1.9c.6-.2.6-.3.5-.9s-.2-.6-.9-.4l-7.6,2.5Zm20.9,14.7c0-.7-.4-1-1-.8l-1,.3-8.4,2.8-3.7,1.2c-.5.1-.5.3-.4.7s.2.7.9.5h.2l10.4-3.5,2.6-.8C129.1,81.4,129.3,81.4,129.3,81.1Zm-27.7-8.2c0-.8-.3-1-1-.7l-10,3.3-.6.2c-.1,0-.2.1-.2.3s.4,1,1,.8L99,74.1l2.3-.8C101.5,73.2,101.7,73.2,101.6,72.9Zm6.3,18.4c.1-.7-.3-1-1-.8l-8.1,2.7-2.3.8c-.2,0-.4,0-.4.3s.1.7.4.9.4,0,.6-.1l10.2-3.3.5-.2A.4.4,0,0,0,107.9,91.3Zm24.6,62.8c-.1-.3-.1-.7-.4-.9s-.4,0-.7.1l-9.9,3.2-.5.2c-.2.1-.2.2-.2.5s.3.8,1.1.6l7.1-2.3,3-1.1C132.2,154.4,132.4,154.4,132.5,154.1ZM116,141.9h.6l9.8-3.3.6-.2.2-.3c0-.7-.4-1-1-.8l-10,3.3-.5.2c-.3.1-.2.4-.1.6S115.6,141.9,116,141.9ZM98.6,101.1h.3l10.5-3.5c.4-.1.5-.3.4-.7s-.3-.7-.8-.5l-1.3.4-9.1,3c-.7.2-.7.3-.4.9S98.2,101.1,98.6,101.1Zm5-22.1c-.3-1.3-.3-1.3-1.5-.9l-8.2,2.7-1.8.6c-.3.1-.4.2-.3.5s.2.9,1,.6l6.7-2.2Zm9.9-9.9c0-.8-.4-1.1-1.1-.8l-2,.6-6.6,2.2c-.3.1-.6.1-.7.4a1.6,1.6,0,0,0,.3.9c.1.2.4.1.6,0l9.1-3c.1,0,.2,0,.2-.1S113.5,69.2,113.5,69.1Zm5.8,17.4h-.6l-8.4,2.8-.7.2c-.1.1-.2.2-.2.3s.4,1.1,1,.8l8.7-2.8.5-.2c.3-.1.2-.3.1-.5S119.7,86.6,119.3,86.5Zm-3.8-11.4a2.5,2.5,0,0,1-.2-.7c-.1-.5-.4-.5-.8-.4l-9,3c-.6.2-.6.2-.4.8s.2.6.8.4l3.4-1.1Zm6.3,18.3c-.4-1.2-.4-1.2-1.5-.9l-8.2,2.7-.6.3c-.1,0-.2.1-.2.3s.4,1,1.1.7l5.3-1.7Zm-4-20.4c-.1.3.1.5.2.7s.3.5.6.3l2-.6,4.6-1.5c.3-.1.6-.2.5-.6s-.3-.9-1.1-.6l-5.1,1.7A4.9,4.9,0,0,0,117.8,73Zm-1.4-4.7h.3l6.7-2.2c.2,0,.4,0,.4-.3a1.6,1.6,0,0,0-.3-.9c-.2-.2-.4,0-.6,0l-6.4,2.1c-.7.3-.7.3-.5,1S116.1,68.3,116.4,68.3Zm13.2,14.8h-.2l-6.8,2.2c-.5.2-.4.5-.3.8s.2.7.7.5l6.8-2.2c.3-.1.4-.3.2-.6S130,83.1,129.6,83.1Z" transform="translate(-6.8 -6.8)"/><path class="cls-4" d="M139.9,140.9c-1.6-1.7-3.3-3.2-4.9-5l-.3-.2a3.2,3.2,0,0,0-1-1,4.4,4.4,0,0,0-1.3-1.4,2.7,2.7,0,0,0-1.1-1c-.1-.7-.7-1-1.2-1.4a3.6,3.6,0,0,0-1-1.1c0-.4-.3-.5-.5-.8-2.1-2.1-4.1-4.3-6.2-6.5s-3.1-3.5-4.7-5.1l-1.1-1.3a1,1,0,0,0-.7-.4h0a3.2,3.2,0,0,0-1.3-1.5,2.7,2.7,0,0,0-1.1-1c-.2-.6-.9-.9-1.1-1.5a5,5,0,0,1-.3-1.3v-.2h9.2a11.3,11.3,0,0,1,2.6-.1c.3.4.7.5,1.1.8a19.8,19.8,0,0,0,2,1.1,1.2,1.2,0,0,0,.7.5l.6.4c3.4,2.3,6.8,4.6,10.4,6.7a20.7,20.7,0,0,0,5,2.3,2.2,2.2,0,0,0,1.3.4c2,.2,2.3-.4,2.7-1.7s1.1-2.9-.6-5.7l-.2-.3c-1-1.6-2.2-3.2-3.3-4.7l3.8-.2c4.3-.1,8.7,0,13-.2s7.4,0,11.1-.2,8.8,0,13.1-.2,7.4.2,11-.2a26.4,26.4,0,0,1,4,.1c.3.9.8,1.7,1.2,2.6,1.6,3.4,3.2,6.8,4.9,10.1a73.5,73.5,0,0,0,6.8,10.6l1.2,1.3c-.6.3-.6.9-.9,1.4a69.7,69.7,0,0,1-5.6,7.8c-2,2.5-4.2,5-6.3,7.4l-7.2,8.1-5.5,5.9-3.3,3.5c-.3.3-.5.6-.9.6a95.8,95.8,0,0,0-8.5-7,33,33,0,0,0-8.6-4.3,9,9,0,0,0-2.1-.8,10.7,10.7,0,0,0-2.2-1,112.7,112.7,0,0,1-12-6.1,2.5,2.5,0,0,0-.9-.4,2.6,2.6,0,0,0-1.4-.9c-.4-.7-1.1-.9-1.8-1.3a2.5,2.5,0,0,0-1.3-.9,3.1,3.1,0,0,0-1.7-1.3,2.3,2.3,0,0,0-1.2-1,3.8,3.8,0,0,0-1.5-1.3A3.2,3.2,0,0,0,139.9,140.9Z" transform="translate(-6.8 -6.8)"/><path class="cls-5" d="M199.7,108.9a26.4,26.4,0,0,0-4-.1c-3.6.4-7.3.1-11,.2s-8.7,0-13.1.2-7.4,0-11.1.2-8.7.1-13,.2l-3.8.2c-2.1-.2-4.2,0-6.3,0h-1.1c-1.1-.1-2.2.2-3.4.1H124a11.3,11.3,0,0,0-2.6.1h-9.2a9.7,9.7,0,0,0-1.7,0,6.6,6.6,0,0,1-2.3-.4l-.4-.3-.7-.6A4.3,4.3,0,0,1,106,105a7,7,0,0,1,1.5-2.5,6.2,6.2,0,0,1,3-.9l5-.6,3.4-.3,5-.4,2.2-.2,5.1-.5,2.9-.3h2.3l5.2-.5,3.1-.3c1.4-.1,2.9-.3,4.4-.3a3.5,3.5,0,0,0,1.7-.4c2.1.1,4.2-.3,6.3-.4l2.3-.2,6-.5a6.6,6.6,0,0,0,2.4-.3c1.7,0,3.4-.3,5.1-.4l5.3-.4,2.4-.2,5.4-.6,3.9-.3,4.3-.3,11.9-1,5.6-.6h.8c-.1.3-.4.4-.7.5a9.2,9.2,0,0,0-2.2,1.7,9.4,9.4,0,0,0-2.1,4.5,4.3,4.3,0,0,0,.2,2.5c-.1.3-.4.5-.4.7s-.4,1-.9,1.1l-.9.2a63.4,63.4,0,0,1-7.5.7l-5.3.2c-3.3,0-6.5.2-9.8,0h-1.1a1.2,1.2,0,0,0-.8.9,1,1,0,0,0,.4.9c.3.2.6.1.9.2,2.7.1,5.5-.1,8.2,0l5-.2,9-.3a8.2,8.2,0,0,0,4.3-1.2l1.1,1a7.6,7.6,0,0,0,4.9,2.4h-2.4Zm-8.8-12.3h.4a77.6,77.6,0,0,1,11.8-1.4h1a.5.5,0,0,0,.5-.5c0-.2-.2-.4-.5-.5h-.6a58.6,58.6,0,0,0-9.3.9c-1.2.1-2.3.4-3.5.6s-.6.3-.5.7S190.5,96.6,190.9,96.6Zm-21.1,2.2h.5l8.1-1,3.8-.4c.4-.1.7-.1.7-.6s-.3-.5-.8-.5h-.3l-11.9,1.4h-.7a.5.5,0,0,0-.3.5c0,.3.1.4.4.5ZM186.5,96h-1a.6.6,0,0,0-.7.5.6.6,0,0,0,.6.6,16.1,16.1,0,0,0,2.2,0,.5.5,0,0,0,.5-.5c0-.3-.1-.5-.5-.6Z" transform="translate(-6.8 -6.8)"/><path class="cls-6" d="M184.1,168.2c.4,0,.6-.3.9-.6l3.3-3.5,5.5-5.9,7.2-8.1c2.1-2.4,4.3-4.9,6.3-7.4a69.7,69.7,0,0,0,5.6-7.8c.3-.5.3-1.1.9-1.4a4.6,4.6,0,0,1,3.2.9c4.7,3,9.4,6,14,9.2l.6.3a47.8,47.8,0,0,0-7.1,8.4c-1.5,2.2-2.9,4.5-4.6,6.6a59.9,59.9,0,0,1-6.5,6.8c-4.1,3.9-8.4,7.5-12.7,11.1a70.1,70.1,0,0,0-7.3,7.1c-2.5-3.1-5.1-6.2-7.4-9.4a18.7,18.7,0,0,1-2.4-3.8c-.4-.7-.5-1.3.2-1.8S184.2,168.5,184.1,168.2Zm5.7,4.8a1.7,1.7,0,0,0,1.8-1.6,1.7,1.7,0,0,0-1.8-1.8,1.7,1.7,0,0,0-1.6,1.7A1.6,1.6,0,0,0,189.8,173Z" transform="translate(-6.8 -6.8)"/><path class="cls-4" d="M189.9,94.4l-3.9.3-5.4.6-2.4.2-5.3.4c-1.7.1-3.4.4-5.1.4a25,25,0,0,1-3.5-2.1l-6.2-4.4A43.2,43.2,0,0,0,146.8,84a3.1,3.1,0,0,1-1.2-.5l3.4-1.2a42.4,42.4,0,0,1,5-1.8,12.1,12.1,0,0,1,4.6-.8,4.3,4.3,0,0,1,3,1.3,8,8,0,0,0,1.3,1.3c1.6,1.6,3.2,3.4,5,4.9a22.6,22.6,0,0,0,4.2,2.6c.4.1.8.2,1-.2s.1-.7-.4-.9a28,28,0,0,1-6.9-5.4c-1.2-1.1-2.3-2.2-3.4-3.4l-1-.7a6.4,6.4,0,0,0-4.5-.7,21.9,21.9,0,0,0-4.9,1.2,2.2,2.2,0,0,1,.6-2.5,2.7,2.7,0,0,1,1.4-.4c1.2,0,2.3-.3,3.4-.2s4.8.3,7.2.7,4.1.6,6.2,1.1l3,1a13,13,0,0,1,3.3,2.3,108.5,108.5,0,0,1,8.6,8C187.1,91.2,188.6,92.7,189.9,94.4Z" transform="translate(-6.8 -6.8)"/><path class="cls-7" d="M207.7,101.8a4.3,4.3,0,0,1-.2-2.5,9.4,9.4,0,0,1,2.1-4.5,9.2,9.2,0,0,1,2.2-1.7c.3-.1.6-.2.7-.5a13.7,13.7,0,0,1,4.5-.3,7.8,7.8,0,0,1,6.2,5l-3.8.4c-1.2.2-2.5.3-3.7.6a2.4,2.4,0,0,0-1.3,4,2.3,2.3,0,0,0,2.1.9h6.8a8.2,8.2,0,0,1-8.5,5.2,7.6,7.6,0,0,1-4.9-2.4l-1.1-1a2.8,2.8,0,0,0,.5-3,.8.8,0,0,0-.9-.5Zm10.1-8.5c-.5-.1-.8,0-.9.4s.2.5.5.6a5.9,5.9,0,0,1,3.3,1.7.5.5,0,0,0,.7,0,.5.5,0,0,0,.1-.8l-.2-.2A5.8,5.8,0,0,0,217.8,93.3Z" transform="translate(-6.8 -6.8)"/><path class="cls-8" d="M152,79.7a21.9,21.9,0,0,1,4.9-1.2,6.4,6.4,0,0,1,4.5.7l1,.7c1.1,1.2,2.2,2.3,3.4,3.4a28,28,0,0,0,6.9,5.4c.5.2.6.6.4.9s-.6.3-1,.2a22.6,22.6,0,0,1-4.2-2.6c-1.8-1.5-3.4-3.3-5-4.9a8,8,0,0,1-1.3-1.3,4.3,4.3,0,0,0-3-1.3,12.1,12.1,0,0,0-4.6.8,42.4,42.4,0,0,0-5,1.8l-3.4,1.2a3.1,3.1,0,0,0,1.2.5,43.2,43.2,0,0,1,11.3,5.8l6.2,4.4a25,25,0,0,0,3.5,2.1,6.6,6.6,0,0,1-2.4.3l-3.7-2.4-5.6-4a31.5,31.5,0,0,0-11.7-5.5,14.9,14.9,0,0,0-6.3-.1,3.3,3.3,0,0,1-1.4.1c-.2-.9-.1-1.1.8-1.3a16.4,16.4,0,0,1,3.2-.5H143c2.5-.8,5-1.7,7.4-2.7Z" transform="translate(-6.8 -6.8)"/><path class="cls-9" d="M223.3,103.3h-6.8a2.3,2.3,0,0,1-2.1-.9,2.4,2.4,0,0,1,1.3-4c1.2-.3,2.5-.4,3.7-.6l3.8-.4a3.2,3.2,0,0,1,2.1,1.2,3,3,0,0,1-1.6,4.6Zm-1.6-2.8a1.9,1.9,0,0,0,1,1.7.5.5,0,0,0,.8-.2.4.4,0,0,0-.2-.7.9.9,0,0,1-.5-.9c-.1-.4-.3-.6-.7-.5S221.7,100.2,221.7,100.5Z" transform="translate(-6.8 -6.8)"/><path class="cls-4" d="M136.7,84.7a3.3,3.3,0,0,0,1.4-.1,14.9,14.9,0,0,1,6.3.1,31.5,31.5,0,0,1,11.7,5.5l5.6,4,3.7,2.4-6,.5-2.3.2c-2.1.1-4.2.5-6.3.4-2.4-1.8-4.6-3.7-7.1-5.3a13.5,13.5,0,0,0-4.7-2.2,15.3,15.3,0,0,0-3-.3,30.3,30.3,0,0,0-5.2.3,8.3,8.3,0,0,1-2.2.3c.2-.4.7-.5.9-1s3.1-2.3,4.7-3.3A20.7,20.7,0,0,1,136.7,84.7Z" transform="translate(-6.8 -6.8)"/><path class="cls-4" d="M149.1,98.1c-1.5,0-3,.2-4.4.3l-3.1.3-5.2.5h-2.3l-2.9.3-5.1.5-2.2.2-5,.4-3.4.3c0-.3-.3-.6-.4-.9a2.1,2.1,0,0,1,.4-2.7,14.2,14.2,0,0,1,2.9-2.1c2-1,4.1-1.9,6.2-2.7l2-.7a.9.9,0,0,0,.9.2l3-.6a37.2,37.2,0,0,1,6.7-.3,13.4,13.4,0,0,1,5.5,1.9,50.7,50.7,0,0,1,4.6,3.5A13,13,0,0,1,149.1,98.1Z" transform="translate(-6.8 -6.8)"/><path class="cls-5" d="M88.1,113.4a12.9,12.9,0,0,0,.7-2.1,1.4,1.4,0,0,1,1.2-1,1.3,1.3,0,0,1,1.6,1.5,10.6,10.6,0,0,1-.4,1.9,18,18,0,0,0-.5,1.9,1.3,1.3,0,0,0-.2.8c-.1.2-.2.3-.2.5-.8,2.7-1.7,5.4-2.4,8.1a1.7,1.7,0,0,1-2.5,1.2,24.4,24.4,0,0,1-6.5-4.5,1.5,1.5,0,0,1-.1-2.2,1.5,1.5,0,0,1,2.1.1l1.7,1.3a9,9,0,0,0,2.8,1.8c.9-2.9,1.7-5.8,2.6-8.7A.7.7,0,0,0,88.1,113.4Z" transform="translate(-6.8 -6.8)"/><path class="cls-10" d="M106.3,153.2c0,.2-.3.2-.5.3l-4.3,1.4-20.6,6.8c-.4.1-.7.4-1-.2s-.2-.8.6-1l20-6.6,4.7-1.6C105.9,152.1,106.3,152.4,106.3,153.2Z" transform="translate(-6.8 -6.8)"/><path class="cls-10" d="M102.9,142.9c0,.1-.1.2-.3.2l-.9.3-21.4,7.1-3.1,1c-.5.2-.6,0-.7-.4s-.3-.6.2-.8l1.9-.6,16.8-5.6,6.4-2.1C102.5,141.8,103,142.1,102.9,142.9Z" transform="translate(-6.8 -6.8)"/><path class="cls-10" d="M81.7,166.6c.2-.3.5-.3.8-.4l21.1-7,3.7-1.2c.6-.1.6-.1.8.5s.2.6-.4.8l-11.6,3.8-7.6,2.5-5.6,1.9c-.9.3-.9.3-1.2-.7Z" transform="translate(-6.8 -6.8)"/><path class="cls-10" d="M74.4,144.6l6.9-2.2,18.5-6.1h.3c.2,0,.4-.2.6,0a1.4,1.4,0,0,1,.3.9c0,.3-.3.3-.5.3L95.6,139l-14.2,4.7-5.8,1.9c-.8.3-.7.4-1.1-.6A.8.8,0,0,0,74.4,144.6Z" transform="translate(-6.8 -6.8)"/><path class="cls-11" d="M69.9,99.5a1.6,1.6,0,0,1,1.4-1.8l4.9-1.6,5.5-1.7a1.8,1.8,0,0,1,2.5,1.3l2.4,7.6.9,2.8a1.8,1.8,0,0,1-1.2,2.4l-1.8.6L76,111.8c-1.5.5-2.3.1-2.8-1.3-1-3.4-2.1-6.8-3.2-10.1A2.8,2.8,0,0,1,69.9,99.5Zm17.2,7.1-.3-1c-.4-1.5-.9-3-1.4-4.4s-1.1-3.6-1.7-5.3-.9-1.4-1.9-1L71.5,98.1c-1.1.4-1.3,1-1,2.1,1.1,3.3,2.1,6.7,3.2,10,.4,1.2.9,1.5,2.2,1.1l8.8-2.8,1.5-.5A1.3,1.3,0,0,0,87.1,106.6Z" transform="translate(-6.8 -6.8)"/><path class="cls-11" d="M63.6,80.3a1.8,1.8,0,0,1,1.5-1.8l5.1-1.7,5.1-1.6c1.5-.4,2.3,0,2.7,1.4l3.3,10.2A1.8,1.8,0,0,1,80,89.4L69.5,92.7a1.7,1.7,0,0,1-2.4-1.2L63.8,81A1.9,1.9,0,0,1,63.6,80.3Zm5.3,12c.2.1.5-.1.7-.1l10.1-3.3a1.4,1.4,0,0,0,1.1-2c-.5-1.5-1-3-1.4-4.5s-1.3-3.8-1.9-5.7a1.4,1.4,0,0,0-1.1-1.1,1.1,1.1,0,0,0-1.1.2l-9.8,3.1c-1.3.4-1.6,1-1.2,2.2s1.3,4.1,2,6.1.9,2.7,1.3,4.1A1.3,1.3,0,0,0,68.9,92.3Z" transform="translate(-6.8 -6.8)"/><path class="cls-10" d="M111.4,158.1c-.5-1.3-.5-1.3.5-1.6l17.5-5.8,2.3-.7c.6-.2.6-.2.8.4s.1.4.2.6Z" transform="translate(-6.8 -6.8)"/><path class="cls-11" d="M88.1,113.4a.7.7,0,0,1-.1.6c-1.4.3-2.8.9-4.2,1.3l-6,1.9c-1.1.4-1.3.9-1,2l.9,2.9c.8,2.4,1.5,4.8,2.3,7.2s1,1.5,2.2,1.1l3.8-1.2,6.3-2a1.4,1.4,0,0,0,1-2l-.6-1.8c-.7-2.3-1.5-4.6-2.2-7a1.3,1.3,0,0,1,.2-.8,31,31,0,0,1,1.3,4c.7,1.8,1.2,3.6,1.8,5.4a2.6,2.6,0,0,1,0,1.5,1.6,1.6,0,0,1-1.3,1.1l-7.7,2.5-2.6.8a2,2,0,0,1-2.7-1.3c-.7-2.6-1.6-5.1-2.4-7.6-.3-.9-.5-1.8-.8-2.7a2,2,0,0,1-.1-1.3c.2-.7.7-1,1.4-1.3l6.3-2Z" transform="translate(-6.8 -6.8)"/><path class="cls-10" d="M106.2,142l-.3-.2c-.4-.7-.2-1,.5-1.3l8.3-2.7,11.7-3.8c.7-.3.6-.2.9.4s0,.6-.5.8l-13.4,4.4-6.5,2.1Z" transform="translate(-6.8 -6.8)"/><path class="cls-10" d="M103.7,135l7.4-2.4,13.2-4.4h.3c.4-.2.6,0,.7.4a1.4,1.4,0,0,0,.2.6c-.3.3-.7.3-1.1.5L104.9,136h-.3c-.4.2-.6,0-.7-.4A2.5,2.5,0,0,0,103.7,135Z" transform="translate(-6.8 -6.8)"/><path class="cls-10" d="M130.1,144.1c.3,0,.4.1.4.2s.3.9-.5,1.2l-10.2,3.3-9.5,3.2H110c-.2.1-.4.2-.6,0a1.4,1.4,0,0,1-.3-.9c0-.2.2-.3.4-.3l3.9-1.3,16-5.3Z" transform="translate(-6.8 -6.8)"/><path class="cls-10" d="M120.4,151.8c-.5,0-.4-.5-.6-.8s.2-.4.5-.5l8.6-2.8,7.9-2.6.6-.2c.6-.2,1,.1,1,.8s-.2.3-.4.4l-5,1.6-11.4,3.8Z" transform="translate(-6.8 -6.8)"/><path class="cls-10" d="M108.6,73.9c0,.3-.2.3-.4.4l-2,.6L92,79.6l-.6.2c-.2.1-.3,0-.4-.2s-.4-.9.4-1.2l16.1-5.3C108.2,72.9,108.6,73.2,108.6,73.9Z" transform="translate(-6.8 -6.8)"/><path class="cls-10" d="M106.6,68c0,.2,0,.4-.2.4l-.5.2L90.1,73.8h-.3c-.6.2-1-.3-1-.9s.4-.2.5-.3l6.6-2.2,9.6-3.1h.3c.4-.2.6-.1.7.3S106.6,67.9,106.6,68Z" transform="translate(-6.8 -6.8)"/><path class="cls-10" d="M112.9,86.5c.1.2-.2.3-.4.4l-2.1.6-14,4.7-.6.2c-.1,0-.3,0-.3-.1s-.4-1.1.2-1.3L112,85.7C112.6,85.5,113,85.8,112.9,86.5Z" transform="translate(-6.8 -6.8)"/><path class="cls-10" d="M100.2,164.6c0,.3-.2.4-.4.5l-1.5.5-14.5,4.7h-.2c-.2.1-.5.3-.6,0a1,1,0,0,1-.3-.9c0-.3.3-.3.5-.3l5.4-1.8,10.5-3.5h0C99.8,163.7,100.2,163.9,100.2,164.6Z" transform="translate(-6.8 -6.8)"/><path class="cls-10" d="M94.2,147.8c.5-.1.5.2.6.5s.1.6-.4.8l-16,5.3c-.7.2-1.1-.2-1-.8s0-.3.1-.3l.7-.3,15.4-5.1Z" transform="translate(-6.8 -6.8)"/><path class="cls-10" d="M81.1,164.8a7.6,7.6,0,0,1-.4-1.1,3.1,3.1,0,0,1,1.2-.5l15.2-5h.3c.2-.1.4-.3.6,0a1.4,1.4,0,0,1,.3.9c-.1.3-.4.2-.5.3l-5.7,1.9-10.3,3.4Z" transform="translate(-6.8 -6.8)"/><path class="cls-10" d="M93,143.1l-5.1,1.7-8.7,2.9-2.9.9c-.5.1-.5.1-.7-.5s-.2-.6.4-.8l8.2-2.7,7.4-2.4C92.7,141.8,92.7,141.8,93,143.1Z" transform="translate(-6.8 -6.8)"/><path class="cls-10" d="M97.1,97l3.4-1.1,8.2-2.7,4.8-1.6c1.1-.4,1.1-.4,1.4.9l-4.3,1.4-8.2,2.7L98.2,98c-.8.3-.8.3-1.1-.5A.8.8,0,0,1,97.1,97Z" transform="translate(-6.8 -6.8)"/><path class="cls-10" d="M101.1,158.2c-.3-.2-.3-.5-.4-.8s0-.4.3-.5l1.8-.6,12-4,.6-.2a.4.4,0,0,1,.5.2c.3.7.3,1-.5,1.2L101.6,158Z" transform="translate(-6.8 -6.8)"/><path class="cls-10" d="M97.9,147.9h-.3a.7.7,0,0,1,.3-1.3l13.7-4.5c.8-.2.8-.2,1,.5s0,.6-.4.7l-2.3.7-11.5,3.8Z" transform="translate(-6.8 -6.8)"/><path class="cls-10" d="M103.2,164c-.2,0-.3-.1-.4-.3s-.3-.9.5-1.1l8.9-3L117,158c.6-.2,1.1.2.9.9s-.3.3-.5.4l-5.5,1.8-8.1,2.7Z" transform="translate(-6.8 -6.8)"/><path class="cls-10" d="M129.1,129.8a3.6,3.6,0,0,1,1,1.1l-7.3,2.4-7.1,2.3c-.9.3-.9.3-1.1-.5s-.1-.3-.1-.5l3.4-1.1Z" transform="translate(-6.8 -6.8)"/><path class="cls-12" d="M107.5,102.5A7,7,0,0,0,106,105a4.3,4.3,0,0,0,1.1,3.9l.7.6c-.6,0-1.1-.4-1.7-.3s-.8-.4-1.2-.5a26.6,26.6,0,0,1-3.9-1.6,1.7,1.7,0,0,1,.1-1.4,4.4,4.4,0,0,1,1.6-1C104.3,104,105.9,103.1,107.5,102.5Z" transform="translate(-6.8 -6.8)"/><path class="cls-10" d="M148.4,147.7a2.6,2.6,0,0,1,1.4.9l-14.5,4.7a.7.7,0,0,1-1-.7.4.4,0,0,1,.4-.4l2.7-.9Z" transform="translate(-6.8 -6.8)"/><path class="cls-10" d="M95.3,141l5.5-1.8,9-3c.6-.2.7-.2.9.4s.2.6-.5.8l-11.7,3.9-2,.7c-.8.2-.8.2-1.1-.5A.9.9,0,0,0,95.3,141Z" transform="translate(-6.8 -6.8)"/><path class="cls-10" d="M124.9,68.7a7.6,7.6,0,0,1-1.6.6l-11.8,3.9h-.2c-.2,0-.5.3-.7,0a1.2,1.2,0,0,1-.3-.9c0-.2.3-.3.5-.3l2.3-.8,10.4-3.4C124.7,67.5,124.5,67.3,124.9,68.7Z" transform="translate(-6.8 -6.8)"/><path class="cls-10" d="M117,91.8c.1,0,0-.1-.1-.2s-.3-1,.3-1.3l13.1-4.2c.2-.1.4-.3.6-.1a1.7,1.7,0,0,1,.3,1c0,.2-.2.2-.4.3l-2.5.8-10.6,3.5Z" transform="translate(-6.8 -6.8)"/><path class="cls-10" d="M108.4,66.4l6-2,7.6-2.5c.7-.2.7-.2.9.4s.1.7-.5.9l-5.7,1.9-6.9,2.2C108.7,67.7,108.7,67.7,108.4,66.4Z" transform="translate(-6.8 -6.8)"/><path class="cls-10" d="M129.3,81.1c0,.3-.2.3-.4.4l-2.6.8-10.4,3.5h-.2c-.7.2-.7.2-.9-.5s-.1-.6.4-.7l3.7-1.2,8.4-2.8,1-.3C128.9,80.1,129.3,80.4,129.3,81.1Z" transform="translate(-6.8 -6.8)"/><path class="cls-10" d="M101.6,72.9c.1.3-.1.3-.3.4l-2.3.8-8.2,2.7c-.6.2-1-.1-1-.8s.1-.3.2-.3l.6-.2,10-3.3C101.3,71.9,101.6,72.1,101.6,72.9Z" transform="translate(-6.8 -6.8)"/><path class="cls-10" d="M107.9,91.3a.4.4,0,0,1-.1.3l-.5.2L97.1,95.1c-.2.1-.5.3-.6.1s-.3-.6-.4-.9.2-.3.4-.3l2.3-.8,8.1-2.7C107.6,90.3,108,90.6,107.9,91.3Z" transform="translate(-6.8 -6.8)"/><path class="cls-10" d="M132.5,154.1c-.1.3-.3.3-.5.3l-3,1.1-7.1,2.3c-.8.2-.9.1-1.1-.6s0-.4.2-.5l.5-.2,9.9-3.2c.3-.1.5-.3.7-.1S132.4,153.8,132.5,154.1Z" transform="translate(-6.8 -6.8)"/><path class="cls-10" d="M116,141.9c-.4,0-.3-.4-.4-.6s-.2-.5.1-.6l.5-.2,10-3.3c.6-.2,1,.1,1,.8l-.2.3-.6.2-9.8,3.3Z" transform="translate(-6.8 -6.8)"/><path class="cls-10" d="M115.9,115.7c.2,1.3.2,1.2-1,1.6l-7.8,2.6-1.9.6c-.6.2-.6.2-.8-.5a.4.4,0,0,1-.1-.5,19.9,19.9,0,0,1,2.6-.9l8.1-2.7.9-.2Z" transform="translate(-6.8 -6.8)"/><path class="cls-10" d="M98.6,101.1c-.4,0-.4-.3-.4-.5s-.3-.7.4-.9l9.1-3,1.3-.4c.5-.2.5-.1.8.5s0,.6-.4.7L98.9,101Z" transform="translate(-6.8 -6.8)"/><path class="cls-10" d="M103.6,79l-4.1,1.3-6.7,2.2c-.8.3-.9.2-1-.6s0-.4.3-.5l1.8-.6,8.2-2.7C103.3,77.7,103.3,77.7,103.6,79Z" transform="translate(-6.8 -6.8)"/><path class="cls-10" d="M145.3,145.5a2.5,2.5,0,0,1,1.3.9l-11,3.7c-.6.2-.6.2-.8-.4s-.2-.6.4-.9l9.4-3.1Z" transform="translate(-6.8 -6.8)"/><path class="cls-10" d="M113.5,113.2a2.7,2.7,0,0,1,1.1,1l-10.4,3.4c-.2.1-.4.2-.6,0a1.6,1.6,0,0,1-.3-.9c.1-.2.3-.2.5-.3l4.4-1.4Z" transform="translate(-6.8 -6.8)"/><path class="cls-10" d="M113.5,69.1c0,.1,0,.2-.2.2s-.1.1-.2.1l-9.1,3c-.2.1-.5.2-.6,0a1.6,1.6,0,0,1-.3-.9c.1-.3.4-.3.7-.4l6.6-2.2,2-.6C113.1,68,113.5,68.3,113.5,69.1Z" transform="translate(-6.8 -6.8)"/><path class="cls-10" d="M119.3,86.5c.4.1.3.4.4.7s.2.4-.1.5l-.5.2-8.7,2.8c-.6.3-1.1-.1-1-.8s.1-.2.2-.3l.7-.2,8.4-2.8Z" transform="translate(-6.8 -6.8)"/><path class="cls-10" d="M115.5,75.1l-6.2,2-3.4,1.1c-.6.2-.6.2-.8-.4s-.2-.6.4-.8l9-3c.4-.1.7-.1.8.4A2.5,2.5,0,0,0,115.5,75.1Z" transform="translate(-6.8 -6.8)"/><path class="cls-10" d="M121.8,93.4l-4.1,1.4-5.3,1.7c-.7.3-1,.1-1.1-.7s.1-.3.2-.3l.6-.3,8.2-2.7C121.4,92.2,121.4,92.2,121.8,93.4Z" transform="translate(-6.8 -6.8)"/><path class="cls-10" d="M112.1,110.4a5,5,0,0,0,.3,1.3l-8.6,2.8-.7.2c-.4.2-.5-.1-.6-.4s-.2-.7.3-.8Z" transform="translate(-6.8 -6.8)"/><path class="cls-10" d="M117.8,73a4.9,4.9,0,0,1,1.7-.6l5.1-1.7c.8-.3.8-.2,1.1.6s-.2.5-.5.6l-4.6,1.5-2,.6c-.3.2-.6.1-.6-.3S117.7,73.3,117.8,73Z" transform="translate(-6.8 -6.8)"/><path class="cls-10" d="M116.4,68.3c-.3,0-.3-.3-.4-.4s-.2-.7.5-1l6.4-2.1c.2,0,.4-.2.6,0a1.6,1.6,0,0,1,.3.9c0,.3-.2.3-.4.3l-6.7,2.2Z" transform="translate(-6.8 -6.8)"/><path class="cls-10" d="M129.6,83.1c.4,0,.3.4.4.7s.1.5-.2.6L123,86.6c-.5.2-.6-.1-.7-.5s-.2-.6.3-.8l6.8-2.2Z" transform="translate(-6.8 -6.8)"/><path class="cls-10" d="M139.9,140.9a3.2,3.2,0,0,1,1,1l-6.2,2a.7.7,0,0,1-.9-.8c0-.3.2-.3.4-.4l4.1-1.3Z" transform="translate(-6.8 -6.8)"/><path class="cls-10" d="M106.1,109.2c.6-.1,1.1.3,1.7.3l.4.3a24.3,24.3,0,0,1-3.8,1.3l-2.1.8c-.5.1-.6,0-.8-.4s-.1-.7.4-.9l3.6-1.2Z" transform="translate(-6.8 -6.8)"/><path class="cls-10" d="M133.7,134.7a3.2,3.2,0,0,1,1,1c-1.6.7-3.3,1.1-4.9,1.7s-.5,0-.6-.3-.4-.7.1-.9l1.2-.4Z" transform="translate(-6.8 -6.8)"/><path class="cls-10" d="M126.6,91.9l-2,.7-.2-.2c-.5-1.2-.5-1.1.6-1.4l4.5-1.5c-.2.5-.7.6-.9,1a1.5,1.5,0,0,1-1.1.4A.9.9,0,0,0,126.6,91.9Z" transform="translate(-6.8 -6.8)"/><path class="cls-10" d="M131.3,132.3a2.7,2.7,0,0,1,1.1,1l-2.1.7c-.6.2-.6.2-.8-.4s-.1-.4-.2-.6Z" transform="translate(-6.8 -6.8)"/><path class="cls-10" d="M142.4,143.2a2.3,2.3,0,0,1,1.2,1l-1.9.7a.5.5,0,0,1-.7-.4c-.3-.7-.3-.7.5-1Z" transform="translate(-6.8 -6.8)"/><path class="cls-5" d="M101.1,105.7a1.7,1.7,0,0,0-.1,1.4h-.1c-.4-.2-.9-.3-.9-.7S100.5,105.7,101.1,105.7Z" transform="translate(-6.8 -6.8)"/><path class="cls-6" d="M137.4,109.8c2.1,0,4.2-.2,6.3,0s2.3,3.1,3.3,4.7l.2.3c1.7,2.8,1.6,2.9.6,5.7l-4,1.3a20.7,20.7,0,0,1-5-2.3c-3.6-2.1-7-4.4-10.4-6.7l-.6-.4c-.1-.4-.1-.8-.7-.5a19.8,19.8,0,0,1-2-1.1l2.1-.8h5.7a13.1,13.1,0,0,1-2.1.8c-.5.1-.4.4-.3.8s.2.6.7.4C133.3,111.2,135.4,110.6,137.4,109.8Z" transform="translate(-6.8 -6.8)"/><path class="cls-10" d="M143.8,121.8l4-1.3c-.4,1.3-.7,1.9-2.7,1.7A2.2,2.2,0,0,1,143.8,121.8Z" transform="translate(-6.8 -6.8)"/><path class="cls-10" d="M127.2,110l-2.1.8c-.4-.3-.8-.4-1.1-.8Z" transform="translate(-6.8 -6.8)"/><path class="cls-10" d="M127.1,111.9c.6-.3.6.1.7.5A1.2,1.2,0,0,1,127.1,111.9Z" transform="translate(-6.8 -6.8)"/><path class="cls-9" d="M207.7,101.8l.7-.2a.8.8,0,0,1,.9.5,2.8,2.8,0,0,1-.5,3,8.2,8.2,0,0,1-4.3,1.2l-9,.3-5,.2c-2.7-.1-5.5.1-8.2,0-.3-.1-.6,0-.9-.2a1,1,0,0,1-.4-.9,1.2,1.2,0,0,1,.8-.9h1.1c3.3.2,6.5,0,9.8,0l5.3-.2a63.4,63.4,0,0,0,7.5-.7l.9-.2c.5-.1,1.1-.3.9-1.1S207.6,102.1,207.7,101.8Z" transform="translate(-6.8 -6.8)"/><path class="cls-8" d="M126.6,91.9a.9.9,0,0,1,.9-1,1.5,1.5,0,0,0,1.1-.4,8.3,8.3,0,0,0,2.2-.3,30.3,30.3,0,0,1,5.2-.3,15.3,15.3,0,0,1,3,.3,13.5,13.5,0,0,1,4.7,2.2c2.5,1.6,4.7,3.5,7.1,5.3a3.5,3.5,0,0,1-1.7.4,13,13,0,0,0-1.8-1.5,50.7,50.7,0,0,0-4.6-3.5,13.4,13.4,0,0,0-5.5-1.9,37.2,37.2,0,0,0-6.7.3l-3,.6A.9.9,0,0,1,126.6,91.9Z" transform="translate(-6.8 -6.8)"/><path class="cls-13" d="M190.9,96.6c-.4,0-.7,0-.7-.4s.2-.6.5-.7,2.3-.5,3.5-.6a58.6,58.6,0,0,1,9.3-.9h.6c.3.1.5.3.5.5a.5.5,0,0,1-.5.5h-1a77.6,77.6,0,0,0-11.8,1.4Z" transform="translate(-6.8 -6.8)"/><path class="cls-13" d="M169.8,98.8h-.5c-.3-.1-.4-.2-.4-.5a.5.5,0,0,1,.3-.5h.7l11.9-1.4h.3c.5,0,.8.1.8.5s-.3.5-.7.6l-3.8.4-8.1,1Z" transform="translate(-6.8 -6.8)"/><path class="cls-10" d="M137.4,109.8c-2,.8-4.1,1.4-6.2,2.1-.5.2-.6-.1-.7-.4s-.2-.7.3-.8a13.1,13.1,0,0,0,2.1-.8c1.2.1,2.3-.2,3.4-.1Z" transform="translate(-6.8 -6.8)"/><path class="cls-13" d="M186.5,96h1.1c.4.1.5.3.5.6a.5.5,0,0,1-.5.5,16.1,16.1,0,0,1-2.2,0,.6.6,0,0,1-.6-.6.6.6,0,0,1,.7-.5Z" transform="translate(-6.8 -6.8)"/><path class="cls-14" d="M189.8,173a1.6,1.6,0,0,1-1.6-1.7,1.7,1.7,0,0,1,1.6-1.7,1.7,1.7,0,0,1,1.8,1.8A1.7,1.7,0,0,1,189.8,173Z" transform="translate(-6.8 -6.8)"/><path class="cls-13" d="M217.8,93.3a5.8,5.8,0,0,1,3.5,1.7l.2.2a.5.5,0,0,1-.1.8.5.5,0,0,1-.7,0,5.9,5.9,0,0,0-3.3-1.7c-.3-.1-.5-.2-.5-.6S217.3,93.2,217.8,93.3Z" transform="translate(-6.8 -6.8)"/><path class="cls-13" d="M221.7,100.5c0-.3,0-.6.4-.6s.6.1.7.5a.9.9,0,0,0,.5.9.4.4,0,0,1,.2.7.5.5,0,0,1-.8.2A1.9,1.9,0,0,1,221.7,100.5Z" transform="translate(-6.8 -6.8)"/><path class="cls-3" d="M90.5,116.4c.7,2.4,1.5,4.7,2.2,7l.6,1.8a1.4,1.4,0,0,1-1,2l-6.3,2-3.8,1.2c-1.2.4-1.8.1-2.2-1.1s-1.5-4.8-2.3-7.2l-.9-2.9c-.3-1.1-.1-1.6,1-2l6-1.9c1.4-.4,2.8-1,4.2-1.3-.9,2.9-1.7,5.8-2.6,8.7a9,9,0,0,1-2.8-1.8l-1.7-1.3a1.5,1.5,0,0,0-2.1-.1,1.5,1.5,0,0,0,.1,2.2,24.4,24.4,0,0,0,6.5,4.5,1.7,1.7,0,0,0,2.5-1.2c.7-2.7,1.6-5.4,2.4-8.1C90.3,116.7,90.4,116.6,90.5,116.4Z" transform="translate(-6.8 -6.8)"/><path class="cls-3" d="M87.1,106.6a1.3,1.3,0,0,1-.9,1.4l-1.5.5-8.8,2.8c-1.3.4-1.8.1-2.2-1.1-1.1-3.3-2.1-6.7-3.2-10-.3-1.1-.1-1.7,1-2.1l10.3-3.2c1-.4,1.6-.1,1.9,1s1.2,3.5,1.7,5.3,1,2.9,1.4,4.4Z" transform="translate(-6.8 -6.8)"/><path class="cls-3" d="M68.9,92.3a1.3,1.3,0,0,1-1.3-1c-.4-1.4-.9-2.7-1.3-4.1s-1.3-4.1-2-6.1-.1-1.8,1.2-2.2l9.8-3.1a1.1,1.1,0,0,1,1.1-.2,1.4,1.4,0,0,1,1.1,1.1c.6,1.9,1.2,3.8,1.9,5.7s.9,3,1.4,4.5a1.4,1.4,0,0,1-1.1,2L69.6,92.2C69.4,92.2,69.1,92.4,68.9,92.3Z" transform="translate(-6.8 -6.8)"/></svg>