<?xml version="1.0" encoding="utf-8"?>
<!-- Generator: Adobe Illustrator 24.1.1, SVG Export Plug-In . SVG Version: 6.00 Build 0)  -->
<svg version="1.1" id="Layer_1" xmlns="http://www.w3.org/2000/svg" xmlns:xlink="http://www.w3.org/1999/xlink" x="0px" y="0px"
	 viewBox="0 0 601.7 150.2" style="enable-background:new 0 0 601.7 150.2;" xml:space="preserve">
<style type="text/css">
	.st0{fill:url(#SVGID_1_);}
	.st1{fill:#FFFFFF;}
	.st2{fill:#646464;}
</style>
<linearGradient id="SVGID_1_" gradientUnits="userSpaceOnUse" x1="12.0158" y1="162.1529" x2="140.1601" y2="34.0208" gradientTransform="matrix(1 0 0 1 0 -24)">
	<stop  offset="0" style="stop-color:#A969FF"/>
	<stop  offset="1" style="stop-color:#7F1FFF"/>
</linearGradient>
<circle class="st0" cx="75.1" cy="75.1" r="75.1"/>
<path class="st1" d="M98.9,33.8l23.8,41.3l-23.8,41.3H51.3L27.4,75.1l23.8-41.3C51.3,33.8,98.9,33.8,98.9,33.8z M60.5,58.6L82.3,96
	l7.5-4.4L68,54.2L60.5,58.6z"/>
<g>
	<path class="st2" d="M219.8,69.7c1.3-4,2.1-6.8,2.5-8.3c0.4-1.5,1-3.9,1.9-7.2c12-2.6,22.3-3.8,30.7-3.8c4.8,0,9.1,0.5,13,1.6
		c3.9,1.1,6.8,2.8,8.7,5.2c1.9,2.4,2.6,5.8,2.1,10.3c-0.3,2.3-1.2,7.4-2.8,15.4c-1.6,8-3.4,18.4-5.3,31.4c-4-0.1-7.9-0.1-11.9-0.1
		c-3.8,0-7.9,0-12.2,0.1c1.1-4.5,2.9-13.7,5.3-27.7c-1.6,0.7-2.9,1.3-3.8,1.6c-0.9,0.3-2.5,0.8-4.8,1.5c-2.3,0.7-4.1,1.2-5.4,1.6
		c-1.3,0.4-2.4,1-3.4,1.7s-1.7,1.4-2.2,2.1c-0.5,0.7-0.8,1.5-0.9,2.4c-0.2,1.4,0.2,2.6,1.2,3.5c1,1,2.7,1.5,5.1,1.5
		c0.9,0,1.8-0.1,2.8-0.2c1-0.1,2.4-0.5,4.2-1.1c-1.6,3.1-3.5,7.7-5.9,13.7c-3.6,0.6-6.9,0.9-10.1,0.9c-5,0-9.2-0.7-12.3-2.1
		c-3.2-1.4-5.5-3.7-6.9-6.8c-1.4-3.1-1.9-6.3-1.5-9.4c0.2-1.9,0.8-3.8,1.7-5.6s2.2-3.6,3.8-5.4c1.6-1.7,3.5-3.2,5.6-4.5
		c2.1-1.2,4.8-2.4,8.3-3.5c3.5-1.1,7.8-2.1,13-3.1c2.2-0.4,4.2-0.8,6-1.3c1.8-0.5,3.1-0.9,3.9-1.2c0.8-0.3,1.5-0.8,2-1.2
		c0.5-0.5,0.9-1,1.2-1.5c0.3-0.5,0.4-1,0.5-1.6c0.2-1.5-0.3-2.7-1.5-3.6c-1.2-0.8-3.1-1.3-5.6-1.3C239.5,63.7,230.6,65.7,219.8,69.7
		z"/>
	<path class="st2" d="M353,114.2c-4.3-0.1-8-0.1-10.9-0.1c-3.3,0-7.2,0-11.9,0.1l1.3-7.8c-1.8,1.5-3.3,2.8-4.6,3.8
		c-1.3,1-2.9,1.9-4.9,2.8c-2,0.9-4,1.6-6.2,2.1c-2.2,0.5-4.4,0.7-6.7,0.7c-3.9,0-7.5-0.7-10.7-2.1s-5.9-3.5-7.9-6.1
		c-2.1-2.6-3.5-5.7-4.2-9.3c-0.7-3.6-0.9-7.3-0.4-11.2c0.7-5.5,2.4-10.9,5.2-16.1c2.8-5.3,6.1-9.4,10-12.4c3.9-3,8.1-5.1,12.6-6.4
		c4.5-1.2,9.3-1.9,14.4-1.9c3.4,0,7.3,0.3,11.7,0.9c0.9-4.8,2-11.6,3.2-20.3c5,0.1,9.1,0.1,12.2,0.1c4.1,0,8.3,0,12.5-0.1
		c-2.7,12.1-5.6,26.8-8.6,44.3C356.2,92.6,354.1,105.6,353,114.2z M337.1,67.1c-2.1-0.5-4.1-0.7-6-0.7c-4,0-7.4,0.8-10.4,2.3
		c-3,1.5-5.4,3.9-7.3,7.1c-1.9,3.2-3,6.4-3.4,9.6c-0.3,2.4-0.1,4.5,0.5,6.4c0.6,1.9,1.7,3.4,3.3,4.5c1.6,1.1,3.5,1.6,5.6,1.6
		c2.2,0,4.4-0.6,6.4-1.9c2-1.3,3.8-3.1,5.2-5.6c1.5-2.4,2.6-5.3,3.5-8.7C335.3,78.4,336.2,73.5,337.1,67.1z"/>
	<path class="st2" d="M366.9,114.2l5.4-29.4l3.8-23l1.4-9.9c4.5,0.1,8.4,0.1,11.8,0.1c3.9,0,7.6,0,11.3-0.1l-1.4,8.1
		c1.5-1.6,2.7-2.9,3.7-3.8c1-0.9,2.2-1.7,3.5-2.5c1.4-0.8,2.7-1.4,4.1-1.9c1.4-0.5,3-0.8,4.7-1.1c1.7-0.3,3.5-0.4,5.3-0.4
		c2.1,0,4,0.2,5.7,0.5c1.7,0.3,3.2,0.8,4.4,1.3c1.2,0.5,2.2,1.1,3.1,1.8c0.9,0.7,1.6,1.5,2.2,2.4c0.6,0.9,1.3,2.1,2,3.8
		c2.1-2.6,4.3-4.6,6.4-5.9c2.2-1.3,4.6-2.3,7.2-3c2.6-0.6,5.3-0.9,8-0.9c3.5,0,6.8,0.5,9.8,1.5s5.4,2.8,7.1,5.3
		c1.7,2.5,2.3,5.8,1.8,9.7c-0.2,1.9-0.7,4.7-1.5,8.5c-0.7,3.8-1.9,10.3-3.5,19.5c-1.6,9.2-2.7,15.7-3.2,19.4
		c-3.7-0.1-7.3-0.1-10.8-0.1c-4.3,0-8.8,0-13.4,0.1c1.1-5.2,2.3-11.7,3.7-19.5c1.4-7.8,2.3-13.2,2.7-16.2c0.3-2.6,0.3-4.6-0.2-5.9
		c-0.5-1.3-1.1-2.2-2-2.7c-0.9-0.5-1.9-0.7-3.1-0.7c-1.2,0-2.3,0.2-3.3,0.7c-1,0.5-2,1.3-2.9,2.3c-1.1,1.4-2.2,3.1-3,5.1
		c-0.7,1.6-1.4,4-2.1,7.3c-0.7,3.3-1.5,7.7-2.3,13.2l-2.5,16.4c-4.3-0.1-8.3-0.1-11.8-0.1c-3.6,0-7.8,0-12.6,0.1
		c0.8-3.6,2-9.7,3.6-18.3c1.6-8.6,2.5-14.3,2.9-17.2c0.3-2.4,0.3-4.3,0-5.5c-0.3-1.2-0.9-2.2-1.7-2.9c-0.8-0.7-1.9-1.1-3.4-1.1
		c-1.6,0-3,0.5-4.3,1.4c-1.3,0.9-2.5,2.3-3.5,4c-1.1,1.8-1.9,4.2-2.7,7.2c-0.7,3.1-1.6,7.8-2.7,14.1s-2,12.4-2.8,18.2
		c-4.9-0.1-8.9-0.1-12-0.1C376.2,114.1,372,114.2,366.9,114.2z"/>
	<path class="st2" d="M483,114.2c1.2-5,2.1-9.1,2.8-12.3s1.5-7.3,2.4-12.3c0.9-5,1.8-10.5,2.8-16.6c1-6.1,2-13.1,3.1-21.1
		c5.3,0.1,9.5,0.1,12.7,0.1c2.9,0,7.1,0,12.5-0.1c-1.7,7.7-3,14.5-4,20.3c-1,5.8-2,12-2.9,18.5c-1.6,11.6-2.7,19.4-3.2,23.6
		c-4.8-0.1-9-0.1-12.5-0.1C493.1,114.1,488.6,114.2,483,114.2z M495.5,44.1c0.8-4.8,1.4-8.7,1.8-11.5c0.1-0.8,0.2-1.9,0.3-3.3
		c4.9,0.1,9,0.1,12.4,0.1c4.6,0,8.6,0,12.1-0.1c-0.3,1.3-0.5,2.3-0.6,3.2l-1.3,7.6c-0.2,1.1-0.4,2.5-0.6,4c-4-0.1-7.9-0.1-11.6-0.1
		C504.2,44,500,44,495.5,44.1z"/>
	<path class="st2" d="M521.7,114.2c2.3-9.2,4.5-19.5,6.5-30.6s3.7-21.7,5.1-31.7c4.9,0.1,9.1,0.1,12.6,0.1c4.1,0,8.1,0,11.9-0.1
		l-1.6,8.3c1.5-1.5,2.8-2.7,3.9-3.6c1.1-0.9,2.4-1.7,4-2.6c1.5-0.8,3.2-1.5,4.9-2c1.7-0.5,3.5-0.9,5.5-1.3c2-0.3,4-0.5,6.1-0.5
		c2.9,0,5.8,0.3,8.5,0.9c2.7,0.6,4.9,1.5,6.7,2.7c1.7,1.2,3.1,2.6,4.2,4.3c1,1.7,1.6,3.6,1.8,5.6c0.2,2,0.1,4.1-0.2,6.2
		c-0.2,1.5-0.8,4.9-1.7,10l-3.8,22.1c-0.7,4.4-1.4,8.4-1.8,12.1c-4.1-0.1-7.9-0.1-11.5-0.1c-4.8,0-9.3,0-13.3,0.1
		c0.8-3.7,1.9-9.2,3.2-16.5c1.3-7.3,2.2-12.4,2.5-15.4c0.6-4.6,0.1-7.8-1.5-9.6c-1.5-1.8-3.7-2.7-6.4-2.7c-2.4,0-4.7,0.8-7,2.3
		c-2.3,1.5-4.2,3.8-5.7,6.7c-1.5,3-2.9,7.8-4.2,14.6c-1.3,6.8-2.5,13.6-3.5,20.6c-4.1-0.1-8-0.1-11.9-0.1
		C530.9,114.1,526.5,114.2,521.7,114.2z"/>
</g>
</svg>
