<svg id="Layer_1" data-name="Layer 1" xmlns="http://www.w3.org/2000/svg" viewBox="0 0 230.8 166.2"><defs><style>.cls-1{fill:#1a1a1a;}.cls-2{fill:none;stroke:#1a1a1a;stroke-linecap:round;stroke-miterlimit:10;stroke-width:1.15px;stroke-dasharray:5.8 5.8;}</style></defs><path class="cls-1" d="M173.3,77.7a16.9,16.9,0,1,0,14.6,14.6A16.9,16.9,0,0,0,173.3,77.7Z" transform="translate(-12.6 -44.9)"/><path class="cls-1" d="M239.5,132.8V200a6.7,6.7,0,0,1-6.7,6.6H23.4a6.7,6.7,0,0,1-6.7-6.6c0-19.4-.1-38.8-.2-58.2a6.6,6.6,0,0,1,5.1-6.5,98.9,98.9,0,0,1,12.2-2.2,117.5,117.5,0,0,1,17-.9h1.5c46.2.5,85.7,21.8,102,60.9a6.6,6.6,0,0,0,6.2,4.2h5.1a6.7,6.7,0,0,0,6.1-9.5c-6.7-14.7-16.9-25.7-29.7-37.1a6.7,6.7,0,0,1,.7-10.6A101.3,101.3,0,0,1,198,123h1.5c5.4.1,11.3.3,17.6.9s11.7,1.4,17,2.4A6.8,6.8,0,0,1,239.5,132.8Z" transform="translate(-12.6 -44.9)"/><rect class="cls-2" x="0.6" y="0.6" width="229.6" height="165.05" rx="7.3"/></svg>