<svg id="Layer_1" data-name="Layer 1" xmlns="http://www.w3.org/2000/svg" viewBox="0 0 275.4 129.3"><defs><style>.cls-1{fill:#1a1a1a;}.cls-2,.cls-3{fill:none;stroke:#1a1a1a;stroke-linecap:round;stroke-miterlimit:10;stroke-width:0.75px;}.cls-2{stroke-dasharray:4.98 4.98;}.cls-3{stroke-dasharray:5;}</style></defs><path class="cls-1" d="M90.7,102.9a8.4,8.4,0,1,0,7.3,7.2A8.4,8.4,0,0,0,90.7,102.9Z" transform="translate(-10.2 -63.4)"/><path class="cls-1" d="M123.8,130.4V164a3.4,3.4,0,0,1-3.4,3.3H15.7a3.3,3.3,0,0,1-3.3-3.3V134.9a3.4,3.4,0,0,1,2.5-3.3l6.1-1.1a52.1,52.1,0,0,1,8.5-.4h.8c23.1.2,42.8,10.9,51,30.4a3.3,3.3,0,0,0,3.1,2.1h2.5a3.3,3.3,0,0,0,3.1-4.7c-3.4-7.3-8.5-12.8-14.9-18.6a3.2,3.2,0,0,1,.4-5.2,50,50,0,0,1,27.6-8.6h.8c2.7,0,5.6.1,8.8.4s5.8.7,8.5,1.2A3.4,3.4,0,0,1,123.8,130.4Z" transform="translate(-10.2 -63.4)"/><rect class="cls-2" x="0.4" y="23.4" width="114.8" height="82.52" rx="3.7"/><path class="cls-1" d="M250.5,102.9a8.4,8.4,0,1,0,7.3,7.2A8.4,8.4,0,0,0,250.5,102.9Z" transform="translate(-10.2 -63.4)"/><path class="cls-1" d="M283.6,130.4V164a3.3,3.3,0,0,1-3.3,3.3H175.6a3.4,3.4,0,0,1-3.4-3.3V134.9a3.5,3.5,0,0,1,2.6-3.3c1.8-.4,3.8-.8,6.1-1.1a51.2,51.2,0,0,1,8.5-.4h.7c23.1.2,42.8,10.9,51,30.4a3.3,3.3,0,0,0,3.1,2.1h2.6a3.3,3.3,0,0,0,3-4.7c-3.4-7.3-8.5-12.8-14.9-18.6a3.3,3.3,0,0,1,.4-5.2,50.5,50.5,0,0,1,27.6-8.6h.8c2.7,0,5.6.1,8.8.4s5.9.7,8.5,1.2A3.3,3.3,0,0,1,283.6,130.4Z" transform="translate(-10.2 -63.4)"/><rect class="cls-2" x="160.2" y="23.4" width="114.8" height="82.52" rx="3.7"/><line class="cls-3" x1="137.7" y1="128.9" x2="137.7" y2="0.4"/></svg>