<svg id="Layer_1" data-name="Layer 1" xmlns="http://www.w3.org/2000/svg" viewBox="0 0 147.5 242"><defs><style>.cls-1{fill:#1a1a1a;}.cls-2{fill:none;stroke:#1a1a1a;stroke-linecap:round;stroke-miterlimit:10;stroke-dasharray:7.06 7.06;}</style></defs><path class="cls-1" d="M175.7,208.7a11.5,11.5,0,1,0,10.4,10.4A11.6,11.6,0,0,0,175.7,208.7Zm0,0a11.5,11.5,0,1,0,10.4,10.4A11.6,11.6,0,0,0,175.7,208.7Zm0,0a11.5,11.5,0,1,0,10.4,10.4A11.6,11.6,0,0,0,175.7,208.7Z" transform="translate(-74.2 -111.8)"/><path class="cls-1" d="M216.7,281.5v57.9a7.7,7.7,0,0,1-7.7,7.7H86.8a7.8,7.8,0,0,1-7.7-7.7V258.5a7.4,7.4,0,0,1,2.3-5.4l22.8-22.9a7.8,7.8,0,0,1,11,0l31.1,31.1a7.7,7.7,0,0,0,10.9,0l15.9-15.8a7.7,7.7,0,0,1,10.9,0L214.5,276A7.8,7.8,0,0,1,216.7,281.5Z" transform="translate(-74.2 -111.8)"/><rect class="cls-2" x="0.5" y="0.5" width="146.5" height="241.02" rx="7.2"/></svg>