<svg id="Layer_1" data-name="Layer 1" xmlns="http://www.w3.org/2000/svg" viewBox="0 0 261.7 205.4"><defs><style>.cls-1{fill:#1a1a1a;}.cls-2,.cls-3{fill:none;stroke:#1a1a1a;stroke-linecap:round;stroke-miterlimit:10;stroke-width:0.75px;}.cls-2{stroke-dasharray:4.91 4.91;}.cls-3{stroke-dasharray:8;}</style></defs><path class="cls-1" d="M87.6,177.8a8,8,0,1,0,7.3,7.2A8.1,8.1,0,0,0,87.6,177.8Zm0,0a8,8,0,1,0,7.3,7.2A8.1,8.1,0,0,0,87.6,177.8Zm0,0a8,8,0,1,0,7.3,7.2A8.1,8.1,0,0,0,87.6,177.8Z" transform="translate(-17 -91)"/><path class="cls-1" d="M116.2,228.4v40.3a5.4,5.4,0,0,1-5.4,5.4h-85a5.4,5.4,0,0,1-5.4-5.4V212.5a5.3,5.3,0,0,1,1.6-3.8l15.9-15.9a5.4,5.4,0,0,1,7.6,0l21.7,21.6a5.4,5.4,0,0,0,7.6,0l11-11a5.4,5.4,0,0,1,7.6,0l21.2,21.2A5.5,5.5,0,0,1,116.2,228.4Z" transform="translate(-17 -91)"/><rect class="cls-2" x="0.4" y="19.7" width="101.9" height="167.7" rx="5"/><path class="cls-1" d="M246.7,177.8a8,8,0,0,0-1.4,15.9,8,8,0,1,0,1.4-15.9Zm0,0a8,8,0,0,0-1.4,15.9,8,8,0,1,0,1.4-15.9Zm0,0a8,8,0,0,0-1.4,15.9,8,8,0,1,0,1.4-15.9Z" transform="translate(-17 -91)"/><path class="cls-1" d="M275.3,228.4v40.3a5.4,5.4,0,0,1-5.4,5.4h-85a5.4,5.4,0,0,1-5.4-5.4V212.5a5.3,5.3,0,0,1,1.6-3.8L197,192.8a5.4,5.4,0,0,1,7.6,0l21.7,21.6a5.3,5.3,0,0,0,7.5,0l11.1-11a5.4,5.4,0,0,1,7.6,0l21.2,21.2A5.5,5.5,0,0,1,275.3,228.4Z" transform="translate(-17 -91)"/><rect class="cls-2" x="159.5" y="19.7" width="101.9" height="167.7" rx="5"/><rect class="cls-3" x="131" height="205.39"/></svg>