<svg id="Layer_1" data-name="Layer 1" xmlns="http://www.w3.org/2000/svg" viewBox="0 0 720.3 97.2"><defs><style>.cls-1{fill:#f0f0f0;}.cls-2{fill:#333;}.cls-3{fill:#ccc;}.cls-4{fill:#e6e6e6;}</style></defs><path class="cls-1" d="M187.3,128.8c-10.6,0-18.3-9-18.3-21.5-.1-7,2.2-13.1,6.3-17.3a18.1,18.1,0,0,1,12.8-5.3,16.2,16.2,0,0,1,10.5,3.5v-21h10.2v49c0,2.5,0,7,.3,10.1l.2,1.6h-9.5l-.2-4.1A17,17,0,0,1,187.3,128.8Zm2.2-35.5c-6.2,0-10.3,5.4-10.3,13.7,0,6.3,2.7,13,10.1,13a9.3,9.3,0,0,0,9.1-7.4,11,11,0,0,0,.2-2.7v-6.8a11,11,0,0,0-.2-2.6A9.1,9.1,0,0,0,189.5,93.3Z" transform="translate(-23.9 -65.7)"/><path class="cls-1" d="M207.3,68.7v47.5c0,3.5.1,7.5.3,10.2h-6.4l-.3-6.8h-.2c-2.2,4.4-7,7.7-13.4,7.7-9.5,0-16.8-8-16.8-20s8-21.1,17.6-21.1c6,0,10.1,2.8,11.9,6h.1V68.7h7.2m-18,52.8a10.7,10.7,0,0,0,10.5-8.5,10.5,10.5,0,0,0,.3-3.1v-6.8a10.2,10.2,0,0,0-.3-3,10.4,10.4,0,0,0-10.3-8.3c-7.4,0-11.8,6.5-11.8,15.2s3.9,14.5,11.6,14.5m21-55.8H197.1V85.4a18.4,18.4,0,0,0-9-2.2A19.1,19.1,0,0,0,174.3,89c-4.5,4.4-6.9,10.9-6.8,18.3,0,13.3,8.3,23,19.8,23a18.3,18.3,0,0,0,10.9-3.4v2.5h12.6l-.3-3.3c-.2-2.2-.3-5.7-.3-9.9V65.7Zm-21,52.8c-6.3,0-8.6-5.9-8.6-11.5s2.3-12.2,8.8-12.2a7.5,7.5,0,0,1,7.4,6h0a6.5,6.5,0,0,1,.2,2.2v6.8a8.6,8.6,0,0,1-.2,2.4,7.7,7.7,0,0,1-7.6,6.2Z" transform="translate(-23.9 -65.7)"/><path class="cls-1" d="M222.7,127.9V85.6h10.1v42.3Zm4.9-46a5.7,5.7,0,0,1-5.8-5.9,5.8,5.8,0,0,1,5.9-6,5.8,5.8,0,0,1,5.9,6,5.5,5.5,0,0,1-1.5,4.1A6,6,0,0,1,227.6,81.9Z" transform="translate(-23.9 -65.7)"/><path class="cls-1" d="M227.7,71.5a4.3,4.3,0,0,1,4.4,4.5,4.2,4.2,0,0,1-4.5,4.4,4.2,4.2,0,0,1-4.3-4.4,4.3,4.3,0,0,1,4.4-4.5m3.6,15.6v39.3h-7.1V87.1h7.1m-3.6-18.6a7.4,7.4,0,0,0-7.4,7.5,7.2,7.2,0,0,0,7.3,7.4,7.9,7.9,0,0,0,5.6-2.2,7.2,7.2,0,0,0,1.9-5.2,7.3,7.3,0,0,0-7.4-7.5Zm6.6,15.6H221.2v45.3h13.1V84.1Z" transform="translate(-23.9 -65.7)"/><path class="cls-1" d="M257.5,128.7a23.2,23.2,0,0,1-11.8-2.9l-1.1-.6,2.8-8.4,1.6,1a17.1,17.1,0,0,0,8.6,2.6c3.9,0,6.2-1.6,6.2-4.3s-1-3.9-6.4-5.8c-9.4-3.4-11.3-8.7-11.3-12.6,0-7.5,6.3-13,15-13a22,22,0,0,1,10.5,2.6l1,.6-2.8,8.2-1.6-1A13.9,13.9,0,0,0,261,93c-3.1,0-5.1,1.6-5.1,3.9s1.4,3.3,6.5,5.3c7.8,2.9,11.3,7,11.3,13.2C273.7,123.5,267.3,128.7,257.5,128.7Z" transform="translate(-23.9 -65.7)"/><path class="cls-1" d="M261.1,86.2a19.7,19.7,0,0,1,9.7,2.4L269,93.8a14.9,14.9,0,0,0-8-2.3c-4.3,0-6.6,2.5-6.6,5.4s2.3,4.7,7.5,6.7c6.8,2.6,10.3,6,10.3,11.8s-5.4,11.8-14.7,11.8a22,22,0,0,1-11.1-2.7l1.8-5.4a18.6,18.6,0,0,0,9.4,2.8c5.2,0,7.7-2.6,7.7-5.8s-2.1-5.3-7.3-7.3c-7.1-2.5-10.4-6.4-10.4-11.1,0-6.3,5.1-11.5,13.5-11.5m0-3c-9.6,0-16.5,6.1-16.5,14.5,0,4.4,2.1,10.3,12.3,14,5.4,1.9,5.4,3.2,5.4,4.4s-2.6,2.8-4.7,2.8a16.7,16.7,0,0,1-7.8-2.3l-3.2-2.2-1.2,3.8-1.8,5.4-.8,2.3,2.1,1.2a25,25,0,0,0,12.6,3.1c10.6,0,17.7-5.9,17.7-14.8s-7-12.6-12.3-14.6-5.5-3-5.5-3.9,1.8-2.4,3.6-2.4a11.7,11.7,0,0,1,6.4,1.9l3.2,2,1.2-3.6,1.8-5.2.8-2.3L272.3,86a22.4,22.4,0,0,0-11.2-2.8Z" transform="translate(-23.9 -65.7)"/><path class="cls-1" d="M303.1,128.7c-12.6,0-21.1-8.7-21.1-21.6s9.3-22.3,22.6-22.3a25.8,25.8,0,0,1,10.6,2.1l1.2.6-2.6,8.6-1.6-1a15.6,15.6,0,0,0-7.6-1.7c-7.5,0-12.4,5.3-12.4,13.4s4.9,13.2,12.2,13.2a18.8,18.8,0,0,0,8.2-1.8l1.6-.7,1.9,8.2-1,.6A28.7,28.7,0,0,1,303.1,128.7Z" transform="translate(-23.9 -65.7)"/><path class="cls-1" d="M304.6,86.3a23.9,23.9,0,0,1,10,2l-1.7,5.5a16.3,16.3,0,0,0-8.3-1.9c-9,0-13.9,6.7-13.9,14.9s5.9,14.7,13.7,14.7a20.6,20.6,0,0,0,8.8-1.9l1.2,5.3a26,26,0,0,1-11.3,2.3c-11.9,0-19.6-8-19.6-20.1s8.3-20.8,21.1-20.8m0-3c-14.2,0-24.1,9.8-24.1,23.8s9.1,23.1,22.6,23.1c5.7,0,10.3-1.3,12.7-2.6l2-1.1-.5-2.2-1.2-5.4-.8-3.5-3.3,1.4a17.1,17.1,0,0,1-7.6,1.7c-6.5,0-10.7-4.6-10.7-11.7s2.9-11.9,10.9-11.9a13,13,0,0,1,6.8,1.5l3.3,1.9,1.1-3.6,1.6-5.6.7-2.4-2.2-1.1a27.4,27.4,0,0,0-11.3-2.3Z" transform="translate(-23.9 -65.7)"/><path class="cls-1" d="M343.3,128.8c-12,0-20.4-8.9-20.4-21.7s8.7-22.4,21-22.4,20.5,8.9,20.5,21.7C364.4,121.8,353.4,128.8,343.3,128.8Zm.5-35.8c-7.4,0-10.6,7-10.6,13.8s4.4,13.6,10.4,13.6,10.5-5.8,10.5-13.7C354.1,101.9,351.9,93,343.8,93Z" transform="translate(-23.9 -65.7)"/><path class="cls-1" d="M343.9,86.2c11.3,0,19,8.2,19,20.2,0,14.6-10.1,20.9-19.6,20.9s-18.9-7.8-18.9-20.2,8.6-20.9,19.5-20.9m-.3,35.7c6.8,0,12-6.4,12-15.2,0-6.7-3.4-15.2-11.8-15.2s-12.1,7.8-12.1,15.3,4.9,15.1,11.9,15.1m.3-38.7c-13.2,0-22.5,9.8-22.5,23.9s9,23.2,21.9,23.2c10.9,0,22.6-7.5,22.6-23.9,0-13.7-9-23.2-22-23.2Zm-.3,35.7c-5.2,0-8.9-5.1-8.9-12.1,0-1.2.2-12.3,9.1-12.3,6.9,0,8.8,8,8.8,12.2,0,7.1-3.8,12.2-9,12.2Z" transform="translate(-23.9 -65.7)"/><path class="cls-1" d="M401.7,127.9V103.7c0-6.7-2.5-10.1-7.6-10.1a8.5,8.5,0,0,0-8.1,6.3,7.9,7.9,0,0,0-.5,2.9v25.1H375.4V97.7c0-4.4-.1-7.5-.3-10.5l-.2-1.6h9.4l.3,3.9a16.6,16.6,0,0,1,11.9-4.8c7.1,0,15.4,4.8,15.4,18.2v25Z" transform="translate(-23.9 -65.7)"/><path class="cls-1" d="M396.5,86.2c5.4,0,13.9,3.2,13.9,16.7v23.5h-7.2V103.7c0-6.3-2.3-11.6-9.1-11.6a10.1,10.1,0,0,0-9.6,7.3,11.1,11.1,0,0,0-.5,3.4v23.6h-7.1V97.7c0-4-.1-7.4-.3-10.6h6.3l.4,6.5h.2c1.9-3.8,6.5-7.4,13-7.4m0-3a17.4,17.4,0,0,0-10.6,3.3l-.2-2.4H373.3l.3,3.2c.2,3,.3,6.1.3,10.4v31.7H387V102.8a6.5,6.5,0,0,1,.4-2.4h0a7.3,7.3,0,0,1,6.7-5.2c1.5,0,6.1,0,6.1,8.6v25.7h13.2V102.9c0-14.6-9.1-19.7-16.9-19.7Z" transform="translate(-23.9 -65.7)"/><path class="cls-1" d="M451.8,127.9V103.7c0-6.7-2.5-10.1-7.6-10.1a8.5,8.5,0,0,0-8.1,6.3,7.9,7.9,0,0,0-.5,2.9v25.1H425.5V97.7c0-4.4-.1-7.5-.3-10.5l-.2-1.6h9.4l.3,3.9a16.6,16.6,0,0,1,11.9-4.8c7.1,0,15.4,4.8,15.4,18.2v25Z" transform="translate(-23.9 -65.7)"/><path class="cls-1" d="M446.6,86.2c5.4,0,13.9,3.2,13.9,16.7v23.5h-7.2V103.7c0-6.3-2.3-11.6-9.1-11.6a10.2,10.2,0,0,0-9.6,7.3,11.1,11.1,0,0,0-.5,3.4v23.6H427V97.7c0-4-.1-7.4-.3-10.6H433l.4,6.5h.2c1.9-3.8,6.5-7.4,13-7.4m0-3A17.4,17.4,0,0,0,436,86.5l-.2-2.4H423.4l.3,3.2c.2,3,.3,6.1.3,10.4v31.7h13.1V102.8a6.5,6.5,0,0,1,.4-2.4h0a7.3,7.3,0,0,1,6.7-5.2c1.5,0,6.1,0,6.1,8.6v25.7h13.2V102.9c0-14.6-9.1-19.7-16.9-19.7Z" transform="translate(-23.9 -65.7)"/><path class="cls-1" d="M493.6,128.7c-12.7,0-20.9-8.4-20.9-21.3s8.3-22.7,20-22.7,17.8,10,17.8,20a23.3,23.3,0,0,1-.3,3.2l-.2,1.6H482.7c.8,9.6,8.5,10.7,11.9,10.7a24.3,24.3,0,0,0,10.3-1.9l1.6-.7,1.9,8-1.1.5A32.7,32.7,0,0,1,493.6,128.7Zm6.9-27.3a11.1,11.1,0,0,0-2.6-6.5,7.9,7.9,0,0,0-5.8-2.1c-5.6,0-8.3,4.8-9.2,8.6Z" transform="translate(-23.9 -65.7)"/><path class="cls-1" d="M492.7,86.2c12.8,0,16.2,11.3,16.2,18.5a23.8,23.8,0,0,1-.2,3.3H481.1c.1,9.7,6.3,13.7,13.5,13.7a26.7,26.7,0,0,0,10.9-2l1.2,5.1a32.9,32.9,0,0,1-13.1,2.4c-12.1,0-19.4-7.9-19.4-19.8s7-21.2,18.5-21.2m-11.5,16.7H502c.1-4.5-1.8-11.6-9.9-11.6s-10.4,6.7-10.9,11.6m11.5-19.7c-12.6,0-21.5,9.9-21.5,24.2s8.8,22.8,22.4,22.8a35,35,0,0,0,14.3-2.7l2.3-1-.6-2.4-1.2-5.1-.8-3.5-3.3,1.4a23.4,23.4,0,0,1-9.7,1.8c-3.4,0-8.8-1.1-10.2-7.7h27l.3-2.6V108a25,25,0,0,0,.2-3.3c0-10.7-5.9-21.5-19.2-21.5ZM485,99.9c.9-2.5,3-5.6,7.1-5.6a6.4,6.4,0,0,1,4.7,1.7,8.1,8.1,0,0,1,2,3.9Z" transform="translate(-23.9 -65.7)"/><path class="cls-1" d="M539.5,128.7c-12.6,0-21-8.7-21-21.6s9.3-22.3,22.6-22.3a25.8,25.8,0,0,1,10.6,2.1l1.1.6-2.5,8.6-1.7-1a15.4,15.4,0,0,0-7.5-1.7c-7.5,0-12.4,5.3-12.4,13.4s4.9,13.2,12.1,13.2a18.5,18.5,0,0,0,8.2-1.8l1.7-.7,1.9,8.2-1.1.6A28.3,28.3,0,0,1,539.5,128.7Z" transform="translate(-23.9 -65.7)"/><path class="cls-1" d="M541.1,86.3a23.4,23.4,0,0,1,9.9,2l-1.6,5.5a16.3,16.3,0,0,0-8.3-1.9c-9,0-13.9,6.7-13.9,14.9s5.8,14.7,13.6,14.7a20.2,20.2,0,0,0,8.8-1.9l1.2,5.3a25.6,25.6,0,0,1-11.3,2.3c-11.8,0-19.5-8-19.5-20.1s8.3-20.8,21.1-20.8m0-3c-14.2,0-24.1,9.8-24.1,23.8s9,23.1,22.5,23.1c5.7,0,10.3-1.3,12.7-2.6l2.1-1.1-.5-2.2-1.3-5.4-.8-3.5-3.3,1.4a16.4,16.4,0,0,1-7.6,1.7c-6.4,0-10.6-4.6-10.6-11.7s2.9-11.9,10.9-11.9a13.3,13.3,0,0,1,6.8,1.5l3.3,1.9,1.1-3.6,1.6-5.6.7-2.4-2.3-1.1a26.9,26.9,0,0,0-11.2-2.3Z" transform="translate(-23.9 -65.7)"/><path class="cls-1" d="M577.4,128.7c-3.8,0-6.9-1.2-8.9-3.5s-3.1-5.8-3.1-11.2V94h-6.1V85.6h6.1V76.5l10-2.7V85.6h10.2V94H575.4v19.7c0,5.7,2,6.2,3.8,6.2a13.8,13.8,0,0,0,3.8-.5l1.8-.5.5,8.3-1,.4A19.2,19.2,0,0,1,577.4,128.7Z" transform="translate(-23.9 -65.7)"/><path class="cls-1" d="M573.9,75.8V87.1h10.2v5.4H573.9v21.2c0,4.9,1.4,7.7,5.3,7.7a18.3,18.3,0,0,0,4.2-.5l.3,5.3a16.9,16.9,0,0,1-6.3,1c-3.4,0-6-1-7.7-3s-2.8-5.6-2.8-10.2V92.5h-6.1V87.1h6.1V77.6l7-1.8m3-3.9-3.8,1-7,1.8-2.2.6v8.8h-6.1V95.5h6.1V114c0,5.8,1.1,9.7,3.5,12.2a13.1,13.1,0,0,0,10,4,20.3,20.3,0,0,0,7.5-1.2l1.9-.8v-2.1l-.3-5.4-.2-3.7-3.6,1a11.4,11.4,0,0,1-3.4.4c-1.1,0-2.3,0-2.3-4.7V95.5h10.2V84.1H576.9V71.9Z" transform="translate(-23.9 -65.7)"/><path class="cls-2" d="M433.1,99.8a5.8,5.8,0,0,0-1.8-.4A4.5,4.5,0,0,1,433.1,99.8Z" transform="translate(-23.9 -65.7)"/><ellipse class="cls-3" cx="328.7" cy="94.5" rx="27.2" ry="2.7"/><ellipse class="cls-4" cx="389.9" cy="91.5" rx="21.1" ry="2.1"/><path class="cls-2" d="M368.2,129.9l-9.3,2.8-.4.2a1.7,1.7,0,0,1-1.3-.4h-.1a2.6,2.6,0,0,1-1-1.6,3.1,3.1,0,0,1-.1-1.9,1.4,1.4,0,0,1,1-1.2h.4l7.5-2.2A16.9,16.9,0,0,1,368.2,129.9Z" transform="translate(-23.9 -65.7)"/><path class="cls-2" d="M363,142.8l8.4-2.5a25.3,25.3,0,0,1-.3,5.6l-6.6,1.9-.4.2a1.6,1.6,0,0,1-1.3-.3h-.1a3.2,3.2,0,0,1-1-1.7,4.1,4.1,0,0,1-.1-1.9,1.4,1.4,0,0,1,1-1.2C362.7,142.8,362.9,142.7,363,142.8Z" transform="translate(-23.9 -65.7)"/><path class="cls-2" d="M361,143.9a3.4,3.4,0,0,0,.1,2.2,3.1,3.1,0,0,0,1.2,1.9h.2a2.2,2.2,0,0,0,1.8.4l.4-.2,6.3-1.9c-.9,3.8-2.9,6.5-5.8,7.4-5.5,1.6-12-4.2-14.6-13s-.2-17.2,5.2-18.8c2.8-.8,5.9.3,8.6,2.8l-7,2.1h-.6a2.1,2.1,0,0,0-1.4,1.7,3.1,3.1,0,0,0,.1,2.1,3.7,3.7,0,0,0,1.2,2h.2a2,2,0,0,0,1.8.5l.4-.2,9.4-2.8a21.1,21.1,0,0,1,1.9,4.6,37.3,37.3,0,0,1,.9,4.6l-8.3,2.4h-.6A2.1,2.1,0,0,0,361,143.9Z" transform="translate(-23.9 -65.7)"/><path class="cls-2" d="M353.8,118.4c-7.2,2.1-10.4,12.7-7.1,23.7s11.7,18.2,18.8,16,10.4-12.7,7.2-23.7S361,116.3,353.8,118.4Zm11.6,36.9c-6,1.7-13.2-4.5-16-14s-.1-18.5,5.9-20.3,13.2,4.4,16,13.9S371.5,153.5,365.4,155.3Z" transform="translate(-23.9 -65.7)"/><path class="cls-2" d="M347.3,121.4s-6.4,7.9-1.7,21.6,9.5,13.6,12.5,15.8c-1.1.4-10.2,3.6-17.1-1.4-4.2-3.1-5.5-7.7-6.5-11.5s-2.7-9.5,0-15C338,123.6,346.1,121.7,347.3,121.4Z" transform="translate(-23.9 -65.7)"/><path class="cls-2" d="M338.1,155.7s-5,1.5-8.2-5.7a87.9,87.9,0,0,1-26.5,4.3c-2.6,0-5.3-.2-7.9-.4-30.3-3.1-51.2-23-60.2-31.4l-2.3-2.3c-29.5-26.7-99-21.7-206.5,14.9a2,2,0,0,1-2.5-1.3,1.9,1.9,0,0,1,1.2-2.5c61-20.8,110.4-31.5,146.8-32,28.6-.4,50.1,5.7,63.6,18l2.5,2.3c8.6,8.2,28.9,27.4,57.8,30.3a81.1,81.1,0,0,0,32.8-3.7l-.3-1.1s-2-8,4-10.1c0,0-1,2.9.4,8s2.2,7.5,2.2,7.5S336.8,154.9,338.1,155.7Z" transform="translate(-23.9 -65.7)"/><path class="cls-2" d="M378,124.3a2.6,2.6,0,0,1-1.8,3.2l-17.3,5.2-.4.2a1.7,1.7,0,0,1-1.3-.4h-.1a2.6,2.6,0,0,1-1-1.6,3.1,3.1,0,0,1-.1-1.9,1.4,1.4,0,0,1,1-1.2h.4l17.3-5.1A2.7,2.7,0,0,1,378,124.3Z" transform="translate(-23.9 -65.7)"/><path class="cls-2" d="M383.6,139.5a2.6,2.6,0,0,1-1.7,3.2l-17.4,5.1-.4.2a1.6,1.6,0,0,1-1.3-.3h-.1a3.2,3.2,0,0,1-1-1.7,4.1,4.1,0,0,1-.1-1.9,1.4,1.4,0,0,1,1-1.2c.1,0,.3-.1.4,0l17.3-5.1A2.7,2.7,0,0,1,383.6,139.5Z" transform="translate(-23.9 -65.7)"/><path class="cls-2" d="M399.3,97.5s-11.3.3-4.8,22.9,15.9,21.5,19.2,19.6c0,0,.9,5-6.2,5.5s-13.9-3.7-19.8-23.2S390,97,394.7,96,399.3,97.5,399.3,97.5Z" transform="translate(-23.9 -65.7)"/><path class="cls-2" d="M422.4,99.5s-7.6,0-2.2,15.2,9.9,9.6,9.9,9.6,1.4,1.5-4.6,7.9c0,0-2.7,4-14.9,6.9,0,0-8.6.2-13.9-17.4s.8-21.9.8-21.9S413.3,92.2,422.4,99.5Z" transform="translate(-23.9 -65.7)"/><path class="cls-2" d="M742.8,123.9c-61,20.8-110.4,31.5-146.8,32-28.6.4-50.1-5.7-63.6-18l-2.5-2.2c-8.6-8.3-28.9-27.5-57.8-30.4a81.9,81.9,0,0,0-32.3,3.6,18.3,18.3,0,0,1,.5,4c-.1,5-3.3,8.4-9.4,10.1s-9.2-5.2-10-9.1c0,0-2.3-6.5-1.2-9.9s3-3.6,3-3.6a19.8,19.8,0,0,1,8.5-1h.1a5.8,5.8,0,0,1,1.8.4,8,8,0,0,1,3.8,2.3,17.1,17.1,0,0,1,1.5,3,86.4,86.4,0,0,1,26.2-4.2c2.6,0,5.3.2,7.9.4,30.3,3.1,51.2,23,60.2,31.5L535,135c29.5,26.7,99,21.7,206.5-14.8a2,2,0,1,1,1.3,3.7Z" transform="translate(-23.9 -65.7)"/></svg>