<svg id="Layer_1" data-name="Layer 1" xmlns="http://www.w3.org/2000/svg" viewBox="0 0 252.4 236.8"><defs><style>.cls-1{fill:#838bc5;}.cls-2{fill:#5479ef;}</style></defs><path class="cls-1" d="M3,40C1.8,57.7,14.9,71.8,28.4,81c10.7,7.3,24.5,11,37.3,11.1a55.2,55.2,0,0,0,24.9-5.5,42.9,42.9,0,0,0,9.7-7.2l2.1-2.3c.7-.7,4.5-3.9.6-.9s1.7-.9,3-1.6c4.8-2.4-1.2-.2-1.8.7s2.6-1,3.2-1.1a96.3,96.3,0,0,1,15.9-3.6l-7.7,1.1c10.9-1.4,21.8-1.4,32.8-1.4,15.2.2,29.7-13.4,29-29s-12.7-28.8-29-29-33.9.3-50.3,4.2c-8.3,2-16.9,5.1-24.1,9.6a60.7,60.7,0,0,0-12,9.4c-.9.9-5.1,4.6-1,1.6a12.1,12.1,0,0,1,5.7-3l-3.3.7,7.7-1.1a48.7,48.7,0,0,1-10.8,0l7.7,1a51.7,51.7,0,0,1-6.8-1.6c-4.7-1.5.4.9,1.9.9-1,0-2.6-1.3-3.4-1.8l-2.6-1.7c-2.9-1.8,5,4.6,1.6,1.1-.6-.6-1.4-1.6-2.1-2.2q3.8,5.6,2.1,2.7c-1.2-2-.7-.9,1.3,3.3l1.1,7.7A6.5,6.5,0,0,1,61,40c.9-15.2-14.1-29.7-29-29C15.4,11.7,4,23.7,3,40Z" transform="translate(-2.9 -11)"/><path class="cls-2" d="M205.2,200.3a28.1,28.1,0,0,0,2.9.1c-4.3.6-3.9-.7-1.3.1.7.2,3.8,1.4.6,0s-.3,0,.4.4c3.2,1.8.5.7-.6-.8a12.4,12.4,0,0,0,2.1,1.9c2.3,2-.4-.3-.8-1.4a16.6,16.6,0,0,0,1.9,3c1.4,1.8-1.1-4-.6-1.6s1.1.8,1-5.4a9.7,9.7,0,0,1,2.4-8.4c.8-1,3.6-2.5.9-1.1,1.2-.7,4.1-1.4,1.2-.7l-2.9.7-2.5.5c3.1-.6-.9,0-1.5.1l-4.6.2c-12.1.5-23.9.2-35.8,2-6.4.9-12.5,2.4-18.2,5.5a40,40,0,0,0-8.1,6.1,31,31,0,0,0-4.9,6.4c-4.9,7.7,4.9-7.1,13.4-6.2-12-1.2-23.5,11.4-23,23,.6,13.4,10.1,21.7,23,23,7,.7,14.8-2.7,19.6-7.6a40.7,40.7,0,0,0,5.5-6.9c1.1-1.8,1-1.9-.1-.3a11,11,0,0,1-3.4,3c3.4-2.3-4.6.8-.2,0a50.3,50.3,0,0,0,5-1.1c4.3-1-2.6.1.2-.1l5.6-.4c15.4-.7,31.7.9,46.6-4,10.6-3.5,19.7-10.2,24.1-20.6s1.9-22-4.1-31.2a52.5,52.5,0,0,0-43.8-24.2c-12-.1-23.5,10.6-23,23s10.1,22.9,23,23Z" transform="translate(-2.9 -11)"/></svg>